<?xml version="1.0" encoding="UTF-8"?>
<!DOCTYPE svg PUBLIC "-//W3C//DTD SVG 1.1//EN" "http://www.w3.org/Graphics/SVG/1.1/DTD/svg11.dtd">
<!-- Creator: CorelDRAW 2018 (64 Bit) -->
<svg xmlns="http://www.w3.org/2000/svg" xml:space="preserve" width="150px" height="150px" version="1.1" style="shape-rendering:geometricPrecision; text-rendering:geometricPrecision; image-rendering:optimizeQuality; fill-rule:evenodd; clip-rule:evenodd"
viewBox="0 0 150 150"
 xmlns:xlink="http://www.w3.org/1999/xlink">
 <defs>
  <style type="text/css">
   <![CDATA[
    .fil0 {fill:#4C3B57}
   ]]>
  </style>
 </defs>
 <g id="Capa_x0020_1">
  <metadata id="CorelCorpID_0Corel-Layer"/>
  <g id="_2591238226752">
   <path class="fil0" d="M60.51 47.32c0,22.23 4.94,48.81 11.06,70.44l1.13 4.47 4.57 0 4.42 -17.17c4.21,-16.67 7.76,-40.35 7.76,-57.48 0,-7.86 -1.22,-15.44 -3.1,-21.53 -1.08,-3.51 -3.7,-9.38 -5.78,-12.5 -1.68,-2.51 -1.81,-3.32 -2.91,-3.55l-5.47 0c-0.7,0 -1.11,1 -1.48,1.57 -3.22,4.97 -5.03,8.24 -7.04,14.29 -2.11,6.37 -3.16,14.79 -3.16,21.46z"/>
   <path class="fil0" d="M101.39 49.36c0,15.3 -4.45,29.97 -9.61,43.96l-13.24 28.91 1.77 0c0.2,-0.73 1.47,-2.35 2.08,-3.26l2.31 -3.27c1.81,-2.42 4.75,-7.26 6.48,-10.03 0.39,-0.63 0.73,-1.05 1.12,-1.67l5.1 -8.86c5.4,-9.72 10.06,-20.05 13.54,-30.64 0.92,-2.79 2.74,-10.38 2.89,-13.62l0.24 -5.32c-0.69,-7.94 -1.58,-11.81 -4.56,-17.53 -3.91,-7.54 -10.25,-11.98 -17.6,-15.66 -2.45,-1.23 -6.42,-1.86 -9.31,-1.86l3.99 3.12c10.04,8.45 14.8,22.06 14.8,35.73z"/>
   <path class="fil0" d="M69.65 122.23l1.78 0 -7.88 -16c-1.3,-2.64 -2.34,-5.62 -3.56,-8.37l-3.32 -8.61c-4.29,-13 -8.09,-25.14 -8.09,-39.64 0,-9.56 2.02,-17.24 5.24,-23.7 5.23,-10.48 12.87,-14.48 13.54,-15.4 -8.69,0 -16.36,4.83 -22.15,10.85 -1.33,1.38 -3.75,4.77 -4.68,6.5 -3.68,6.86 -3.8,10.4 -4.61,17.47 -0.39,3.4 0.93,10.97 1.84,14.59 0.37,1.49 0.75,2.99 1.2,4.39 4.96,15.51 10.73,25.83 18.51,39.37l8.83 13.52c0.45,0.68 0.7,0.94 1.17,1.62 0.44,0.64 0.69,1.09 1.12,1.67 0.46,0.6 0.84,0.93 1.06,1.74z"/>
   <path class="fil0" d="M103.42 15.84c0.52,0.71 2.01,1.47 2.79,2.03 2.68,1.93 5.56,5.04 7.55,7.69 10.61,14.19 5.48,34.82 -0.26,48.1l-4.84 10.14c-0.65,1.28 -1.09,2.1 -1.77,3.31 -3.46,6.19 -7.71,12.84 -11.96,18.5l-13.86 16.62c1.17,-0.1 1.59,-0.95 2.99,-2.35l10.4 -10.93c6.47,-7.7 9.45,-11.84 14.69,-19.84 0.43,-0.65 0.76,-1.09 1.11,-1.68l3.91 -6.76c4.74,-9.59 6.39,-12.25 9.15,-23.09 3.75,-14.68 -0.2,-29.61 -12.79,-37.93 -1.21,-0.8 -5.65,-3.69 -7.11,-3.81z"/>
   <path class="fil0" d="M46.54 15.84c-1.41,0.12 -5.71,2.88 -6.95,3.71 -1.16,0.77 -2.01,1.42 -3.01,2.32l-3.94 3.93c-1.2,1.37 -2.54,3.16 -3.37,4.76 -1.32,2.56 -2.23,4.59 -2.99,7.67 -1.44,5.84 -1.18,13.24 0.25,18.95 1.83,7.29 3.87,12.96 7.23,19.68 2.35,4.7 5.11,9.08 7.81,13.52l6.71 9.54c3.44,4.57 5.07,6.3 8.34,10.19 3.91,4.65 6.6,6.92 10.55,11.04 0.65,0.68 0.67,0.99 1.72,1.08l-4.72 -5.19c-0.54,-0.69 -0.65,-0.76 -1.18,-1.36l-7.85 -9.92c-4.9,-6.52 -11.81,-17.47 -15.46,-24.92 -5.43,-11.1 -11.3,-26.68 -9.28,-40.52 0.93,-6.37 4.02,-13.54 7.95,-17.44 1.91,-1.89 2.81,-3.06 5.25,-4.9 0.88,-0.67 2.4,-1.4 2.94,-2.14z"/>
   <path class="fil0" d="M67.87 131.62c0,6.89 -0.2,8.18 4.04,8.38l6.63 0c4.32,0 3.55,-4.3 3.55,-8.38 0,-5.18 -3.96,-4.06 -10.66,-4.06 -2.53,0 -3.56,1.52 -3.56,4.06z"/>
   <polygon class="fil0" points="47.05,15.59 47.31,15.59 47.09,15.29 "/>
   <polygon class="fil0" points="102.91,15.59 102.91,15.33 102.61,15.54 "/>
   <polygon class="fil0" points="47.05,15.59 46.54,15.84 "/>
   <polygon class="fil0" points="103.42,15.84 102.91,15.59 "/>
  </g>
 </g>
</svg>
