<?xml version="1.0" encoding="UTF-8"?>
<!DOCTYPE svg PUBLIC "-//W3C//DTD SVG 1.1//EN" "http://www.w3.org/Graphics/SVG/1.1/DTD/svg11.dtd">
<!-- Creator: CorelDRAW 2018 (64 Bit) -->
<svg xmlns="http://www.w3.org/2000/svg" xml:space="preserve" width="150px" height="150px" version="1.1" style="shape-rendering:geometricPrecision; text-rendering:geometricPrecision; image-rendering:optimizeQuality; fill-rule:evenodd; clip-rule:evenodd"
viewBox="0 0 150 150"
 xmlns:xlink="http://www.w3.org/1999/xlink">
 <defs>
  <style type="text/css">
   <![CDATA[
    .fil0 {fill:#4C3B57}
   ]]>
  </style>
 </defs>
 <g id="Capa_x0020_1">
  <metadata id="CorelCorpID_0Corel-Layer"/>
  <path class="fil0" d="M104 106.5c-2.34,0.55 -5.01,1.3 -7.28,1.97 -2.42,0.71 -4.9,1.31 -7.25,2l-14.5 3.95 -21.69 -5.95c-2.3,-0.68 -4.88,-1.41 -7.28,-1.97 0,-1.91 -0.35,-3.79 -0.48,-5.52l-1.52 -16.98c16.61,0 13.97,-0.88 14.29,2.46l0.71 9.04c1.15,0.55 2.44,0.75 3.84,1.16 1.43,0.42 2.69,0.78 4.11,1.14l8.05 2.09c0.56,0 15.15,-3.98 16,-4.39l2 -19.5 -49.75 0c0,-2.06 -0.32,-4.59 -0.61,-6.64l-0.64 -6.61c17.54,0 34.64,-0.5 52.25,-0.5 0,-3.54 1,-11.04 1,-14.5l-54.75 0c0,-3.69 -0.75,-8.33 -0.75,-13l70.5 0c0,3.2 -0.5,6.1 -0.73,9.02 -0.42,5.37 -1.28,12.94 -1.52,17.98 -0.06,1.19 -0.34,3.16 -0.46,4.29 -0.41,3.94 -0.63,9.72 -1.18,13.57 -0.45,3.1 -0.79,9.96 -1.15,13.35 -0.13,1.27 -0.4,3.17 -0.46,4.54 -0.13,2.97 -0.75,6 -0.75,9zm-29 32.5l45.02 -12.48c1.21,-0.41 1.09,-1.2 1.23,-4.52 0.07,-1.7 0.36,-3.68 0.48,-5.27l4.23 -47.52c0.21,-1.95 0.16,-3.42 0.43,-5.32l4.61 -52.89 -112 0c0,2.62 1.46,17.21 1.77,21.23 0.25,3.3 0.83,7.18 0.98,10.52l5.57 63.43c0.41,3.14 0.75,7.17 0.94,10.56l0.73 7.77c0.03,1.43 -0.21,1.61 0.99,2.01 1.36,0.46 3.07,0.85 4.52,1.23l31.45 8.8c1.4,0.4 2.96,0.82 4.5,1.26 0.69,0.19 3.9,1.19 4.55,1.19z"/>
 </g>
</svg>
