<?xml version="1.0" encoding="UTF-8"?>
<!DOCTYPE svg PUBLIC "-//W3C//DTD SVG 1.1//EN" "http://www.w3.org/Graphics/SVG/1.1/DTD/svg11.dtd">
<!-- Creator: CorelDRAW 2018 (64 Bit) -->
<svg xmlns="http://www.w3.org/2000/svg" xml:space="preserve" width="150px" height="150px" version="1.1" style="shape-rendering:geometricPrecision; text-rendering:geometricPrecision; image-rendering:optimizeQuality; fill-rule:evenodd; clip-rule:evenodd"
viewBox="0 0 150 150"
 xmlns:xlink="http://www.w3.org/1999/xlink">
 <defs>
  <style type="text/css">
   <![CDATA[
    .fil0 {fill:#4C3B57}
   ]]>
  </style>
 </defs>
 <g id="Capa_x0020_1">
  <metadata id="CorelCorpID_0Corel-Layer"/>
  <path class="fil0" d="M36.32 131.71c-1.26,0 -2.76,-1.32 -2.76,-2.49 0,-1.66 2.45,-7.41 3.04,-9.95l9.46 9.33c-1.67,0.44 -8.42,3.11 -9.74,3.11zm109.41 -90.72l0 1.51c-0.1,1.37 -0.48,2.74 -1.19,4.03 -0.82,1.5 -3.55,4.88 -5.3,5.16 -1.18,0.18 -2.35,-0.87 -2.35,-2.32 0,-1.34 3.48,-3.74 4.12,-5.55 1.04,-2.97 0.29,-5.13 -1.56,-6.95 -3.27,-3.22 -6.29,-6.29 -9.54,-9.53 -4.53,-4.53 -7.21,-5.09 -12.02,-0.28 -2.22,2.23 -8.01,7.46 -9.53,9.67l20.24 20.1c1.1,-0.73 1.8,-2.03 3.03,-2.52 1.33,-0.52 2.77,0.32 2.77,1.97 0,1.43 -1.33,2.3 -2.14,3.11 -5.04,5.03 -37.43,36.91 -38.75,38.89 4.55,0.1 9.53,2.7 13.35,4.6 1.37,0.68 2.95,1.01 2.95,2.86 0,0.78 -0.87,1.93 -1.66,1.93 -1.57,0 -8.57,-3.75 -13.15,-4.81 -1.29,-0.3 -2.41,-0.4 -3.83,-0.62 -1.92,-0.29 -1.9,0.09 -2.84,1.07l-12.99 12.99c-7.85,7.86 -9.59,10.25 -20.61,13.92 -4.42,1.47 -8.42,2.9 -12.78,4.35 -2.22,0.74 -4.51,1.84 -6.99,1.28 -2.22,-0.5 -3.99,-1.77 -4.89,-3.7 -2.07,-4.45 1.1,-8.82 2.11,-13.15 -3.48,0 -5.78,-0.24 -8.6,-0.8 -4.72,-0.94 -9.2,-2.63 -12.05,-6.46 -4.79,-6.42 -0.83,-14.11 3.02,-19.76 1.01,-1.48 3.6,-5.28 5.27,-5.47 0.97,-0.11 1.9,0.56 2.2,1.49 0.53,1.63 -1.41,3.21 -2.36,4.39 -5.95,7.35 -10.39,16.4 1.15,20.56 3.31,1.2 7.94,1.9 12.47,1.9 0.55,0 1.07,-2.22 1.28,-2.86 2.62,-7.97 4.41,-12.08 10.53,-18.2 10.86,-10.86 21.52,-21.99 32.61,-32.6 1.18,-1.13 1.2,-0.79 1.18,-2.96 -0.04,-4.06 0.49,-6.69 1.48,-10.68 0.52,-2.12 1.26,-4.36 2.02,-6.27 6.03,-15.09 -9.11,-22.85 -24.51,-22.85 -15.21,0 -27.14,4.76 -37.69,12.04 -4.58,3.17 -9.32,7.77 -11.04,13.27 -0.72,2.3 -0.98,4.87 -0.07,7.19 1.41,3.6 4.36,4.8 8.19,4.8 4.28,0 13.88,-6.36 24.31,-6.36 5.48,0 11.53,1.55 10.82,7.51 -0.79,6.67 -9.77,14.31 -14.47,18.4 -0.48,0.42 -0.57,0.52 -1.05,0.89 -0.99,0.77 -8.54,7.74 -9.67,7.74 -1.13,0 -1.98,-0.7 -2.28,-1.61 -0.61,-1.88 1.85,-3.21 3.05,-4.25l5.98 -5.08c3.43,-2.67 6.97,-5.63 9.67,-9.11 1.27,-1.64 6.76,-7.71 3.58,-9.34 -4.51,-2.31 -15.29,0.7 -18.93,2 -5.52,1.99 -13.44,6.89 -20.21,0.39 -2.85,-2.74 -3.79,-5.73 -3.79,-10.02 0,-4.4 2,-8.02 4.34,-11.13l4.84 -5.39c0.6,-0.59 0.76,-0.64 1.36,-1.13 2.31,-1.86 4.83,-3.78 7.43,-5.27 8.43,-4.85 20.68,-9.77 31.21,-9.68 1.98,0.01 2.97,-0.48 4.9,-0.21 5.03,0.72 7.5,0.27 13.16,2.03 1.19,0.38 2.78,1.01 3.77,1.49 3.27,1.59 6.53,3.4 8.88,6.31 7.16,8.86 3.03,15.06 0.79,23.25 -0.65,2.37 -1.66,5.32 -1.66,8.29 1.95,-1.3 16.91,-16.77 18.99,-18.85 4.01,-4.01 10.05,-10.5 14.1,-14.09 3.35,-2.99 8.48,-4.1 12.59,-1.69 2.86,1.68 10.55,10.07 13.38,12.87 1.93,1.91 3.18,4.56 3.38,7.3zm-81.51 64.75l0 0zm-13.53 -3.04c0,2.02 1.35,3.42 2.99,3.93 1.62,0.51 4.01,-0.74 5.85,-0.89 -0.06,2.48 -2.18,5.18 0.11,7.62 2.42,2.58 5.21,0.17 7.9,0.11 -0.72,1.5 -0.87,4.29 -1.57,5.89 -1.34,3.06 -12.05,6.9 -15.28,7.65l-12.37 -12.22 2.77 -8.43c0.62,-1.57 3.28,-6.14 4.47,-6.85 0.54,-0.33 5.38,-1.49 6.23,-1.51 -0.11,1.34 -1.1,3.79 -1.1,4.7zm21.34 10.84c-0.07,-1.77 -0.34,-2.7 -1.29,-3.55 -1.45,-1.3 -2.46,-1.02 -3.48,-0.94l44.14 -44.27 4.83 4.7 -44.2 44.06zm-7.81 -7.8c0,-3.18 -2.01,-5.11 -4.97,-4.43l44.14 -44.27c1.04,0.32 4.14,3.56 4.76,4.49 -0.33,1.24 -1.56,1.98 -2.41,2.83l-8.29 8.29c-2.66,2.66 -31.85,32.16 -33.23,33.09zm-7.94 -7.67c0.57,-2.8 -1.36,-4.77 -4.49,-4.77l44 -44.13 4.7 4.56 -44.21 44.34zm42.69 -51.94l6.35 -6.49 20.31 20.44 -6.36 6.21 -20.3 -20.16z"/>
 </g>
</svg>
