<?xml version="1.0" encoding="UTF-8"?>
<!DOCTYPE svg PUBLIC "-//W3C//DTD SVG 1.1//EN" "http://www.w3.org/Graphics/SVG/1.1/DTD/svg11.dtd">
<!-- Creator: CorelDRAW 2018 (64 Bit) -->
<svg xmlns="http://www.w3.org/2000/svg" xml:space="preserve" width="150px" height="150px" version="1.1" style="shape-rendering:geometricPrecision; text-rendering:geometricPrecision; image-rendering:optimizeQuality; fill-rule:evenodd; clip-rule:evenodd"
viewBox="0 0 150 150"
 xmlns:xlink="http://www.w3.org/1999/xlink">
 <defs>
  <style type="text/css">
   <![CDATA[
    .fil0 {fill:#4C3B57}
   ]]>
  </style>
 </defs>
 <g id="Capa_x0020_1">
  <metadata id="CorelCorpID_0Corel-Layer"/>
  <path class="fil0" d="M109.03 78.73l0 -43.87c0,-6.95 9.04,-6.42 9.04,-0.53l0 44.67c0,5.1 -5.17,6.4 -7.79,3.54 -0.79,-0.87 -1.25,-2.23 -1.25,-3.81zm-72.32 5.32c-2.96,0 -4.78,-2.05 -4.78,-5.05l0 -44.67c0,-4.89 5.9,-5.76 7.99,-2.94 0.64,0.86 1.05,1.92 1.05,3.47l0 43.87c0,3.2 -2.18,5.32 -4.26,5.32zm85.89 -16.22l0 -21.8c0,-6.76 6.91,-6.76 6.91,0l0 21.8c0,6.2 -4.95,5.31 -6.25,3.32 -0.53,-0.81 -0.66,-2.08 -0.66,-3.32zm-102.11 0l0 -21.8c0,-1.25 0.2,-2.76 0.74,-3.52 1.63,-2.32 6.17,-2.45 6.17,3.52l0 21.8c0,6.2 -4.94,5.31 -6.24,3.32 -0.54,-0.81 -0.67,-2.08 -0.67,-3.32zm117.26 -6.38l-3.72 0 0 -9.04 4.52 0 0 8.24c0,0.61 -0.19,0.8 -0.8,0.8zm-126.3 -0.8l0 -8.24 4.52 0 0 9.04 -3.72 0c-0.61,0 -0.8,-0.19 -0.8,-0.8zm63.28 -3.19c0.59,0.16 4.11,3.24 8.25,0.8l1.06 -0.8c2.03,1.36 4.32,2.55 7.45,1.07 2.11,-0.99 3.98,-3.06 3.98,-6.12l9.04 0 0 8.24c0,0.61 -0.18,0.8 -0.79,0.8l-28.72 0c0,-1.37 0,-1.22 -0.38,-2.31 -0.49,-1.41 -0.4,-0.73 0.11,-1.68zm-24.72 -0.53l0 4.52c-3.03,0 -4.52,0.43 -4.52,-0.8l0 -8.24 9.04 0c0,1.27 0.18,1.1 0.26,2.13 -2.58,0 -4.78,-0.16 -4.78,2.39zm27.38 -4.25c0,-5 -0.91,-9.31 2.13,-9.31 3.02,0 2.13,4.19 2.13,9.04 0,3 -4.26,2.41 -4.26,0.27zm-9.04 -0.27c0,-4.85 -0.89,-9.04 2.13,-9.04 3.04,0 2.13,4.31 2.13,9.31 0,2.14 -4.26,2.73 -4.26,-0.27zm18.08 -0.27c0,-4.38 -0.91,-8.77 2.13,-8.77 3.06,0 2.13,3.67 2.13,9.04 0,0.69 -0.2,1.18 -0.6,1.53 -1.26,1.16 -3.66,0.57 -3.66,-1.8zm-24.72 2.4c-3.37,0 -2.4,-3.63 -2.4,-9.58 0,-1.13 2.18,-2.28 3.5,-1.1 1.27,1.13 0.76,5.35 0.76,8.28 0,1.63 -1.46,2.4 -1.86,2.4zm-34.31 -17.55c-2.14,-0.18 -5.4,-1.98 -9.24,1.92 -2.56,2.58 -2.19,5.26 -2.19,8.71 -3.99,0 -9.04,-0.82 -9.04,2.4l0 14.09c0,2.7 5.61,1.86 9.04,1.86 0,3.24 -0.42,6.74 2.5,9.2 3.74,3.15 5.97,2.13 8.93,1.44 0,4.13 -0.21,5.75 1.59,8.25 2.44,3.38 5.05,3.71 8.52,3.71 3.69,0 7.98,-4.33 7.98,-7.98l0 -14.62 4.52 0c0,7.2 -0.92,10.88 3.39,15.75 1.23,1.4 5.65,5.18 5.65,6.05l0 37.23 4.78 0 0 -37.76c0,-2.54 -2.94,-4.67 -5.38,-7.11 -2.65,-2.64 -3.92,-3.61 -3.92,-8.84l0 -11.97 14.09 0c1.4,0 3.84,4.32 -1.86,4.26 -8.45,-0.07 -7.71,-0.57 -7.71,6.91 0,2.18 2.34,2.42 4.15,3.03 3.44,1.14 6.12,2.4 7.89,6.46 0.95,2.18 1.52,3.91 1.52,6.46l4.78 0c0,-5.65 -2.99,-12.06 -7.82,-15.3 -1.53,-1.03 -3.8,-1.79 -5.74,-2.25l0 -0.53c2.95,0 5.42,0.23 7.9,-1.14 0.81,-0.44 1.33,-1.25 1.94,-1.25l19.41 0c0,11.73 1.01,9.31 -5.39,17.74 -0.76,1 -1.52,1.88 -1.52,3.53l0 37.76 4.78 0 0 -37.49c0,-2.1 6.92,-5.83 6.92,-14.89l0 -6.65 6.64 0 0 14.62c0,3.65 4.29,7.98 7.98,7.98 3.4,0 5.91,-0.26 8.41,-3.56 1.9,-2.51 1.7,-4.26 1.7,-8.4 2.92,0.68 5.22,1.69 8.93,-1.44 2.92,-2.46 2.5,-5.96 2.5,-9.2 3.43,0 9.04,0.84 9.04,-1.86l0 -14.09c0,-3.22 -5.05,-2.4 -9.04,-2.4 0,-3.45 0.37,-6.13 -2.19,-8.71 -3.84,-3.9 -7.1,-2.1 -9.24,-1.92 0,-4.65 0.19,-5.66 -1.89,-8.48 -2.91,-3.93 -9.02,-4.84 -13.27,-1.1 -1.22,1.08 -2.93,3.6 -2.93,5.85l0 14.36 -9.04 0c0,-2.89 0.2,-4.71 -1.91,-6.85 -2.02,-2.04 -4.72,-2.73 -7.4,-1.66 -1.01,0.4 -1.34,0.81 -2.12,1.33 -4.56,-3.96 -8.28,-0.26 -9.04,-0.26 -0.94,0 -3.68,-3.26 -8.14,-0.43 -0.39,0.24 -0.63,0.46 -0.9,0.69 -1.22,-0.81 -2.37,-1.86 -4.52,-1.86 -3.75,0 -6.91,3.11 -6.91,6.92l0 2.12 -9.04 0 0 -14.36c0,-4.79 -6.35,-10.6 -13.13,-7.27 -4.93,2.42 -4.96,6.51 -4.96,11z"/>
 </g>
</svg>
