<?xml version="1.0" encoding="UTF-8"?>
<!DOCTYPE svg PUBLIC "-//W3C//DTD SVG 1.1//EN" "http://www.w3.org/Graphics/SVG/1.1/DTD/svg11.dtd">
<!-- Creator: CorelDRAW 2018 (64 Bit) -->
<svg xmlns="http://www.w3.org/2000/svg" xml:space="preserve" width="150px" height="150px" version="1.1" style="shape-rendering:geometricPrecision; text-rendering:geometricPrecision; image-rendering:optimizeQuality; fill-rule:evenodd; clip-rule:evenodd"
viewBox="0 0 150 150"
 xmlns:xlink="http://www.w3.org/1999/xlink">
 <defs>
  <style type="text/css">
   <![CDATA[
    .fil0 {fill:#4C3B57}
   ]]>
  </style>
 </defs>
 <g id="Capa_x0020_1">
  <metadata id="CorelCorpID_0Corel-Layer"/>
  <path class="fil0" d="M40 34.75l70 0 -0.89 10.36c-0.2,1.35 -0.08,2.19 -0.36,3.39l-53.5 0 0.86 11.39c0.19,1.34 -0.26,3.36 0.89,3.36l50.5 0c0,1.56 -0.36,3.78 -0.48,5.27l-1.45 16.3c-0.53,4.14 -0.87,11.48 -1.36,16.14 -0.18,1.72 -0.46,3.56 -0.46,5.54l-28.75 8c-0.12,0 -3.21,-0.87 -3.53,-0.97 -6.15,-1.81 -19.63,-5.73 -25.22,-7.03l-2 -22.5 14 0c0,2.44 1,9.07 1,11.75 1.16,0.1 2.85,0.7 4,1l11.75 3.14c0.47,0 3.03,-0.75 3.89,-1l11.86 -3.14c0,-4.52 1.5,-13.79 1.5,-18.5l-48.5 0 -3.75 -42.5zm35 104.25l45.02 -12.48c1.21,-0.41 1.09,-1.2 1.23,-4.52 0.07,-1.7 0.36,-3.68 0.48,-5.27l4.23 -47.52c0.21,-1.95 0.16,-3.42 0.43,-5.32l4.61 -52.89 -112 0c0,2.62 1.46,17.21 1.77,21.23 0.25,3.3 0.83,7.18 0.98,10.52l5.57 63.43c0.41,3.14 0.75,7.17 0.94,10.56l0.73 7.77c0.04,1.43 -0.21,1.61 0.99,2.01 1.36,0.46 3.07,0.85 4.52,1.23l31.45 8.8c1.4,0.4 2.96,0.82 4.5,1.25 0.69,0.2 3.9,1.2 4.55,1.2z"/>
 </g>
</svg>
