<?xml version="1.0" encoding="UTF-8"?>
<!DOCTYPE svg PUBLIC "-//W3C//DTD SVG 1.1//EN" "http://www.w3.org/Graphics/SVG/1.1/DTD/svg11.dtd">
<!-- Creator: CorelDRAW 2018 (64 Bit) -->
<svg xmlns="http://www.w3.org/2000/svg" xml:space="preserve" width="150px" height="150px" version="1.1" style="shape-rendering:geometricPrecision; text-rendering:geometricPrecision; image-rendering:optimizeQuality; fill-rule:evenodd; clip-rule:evenodd"
viewBox="0 0 150 150"
 xmlns:xlink="http://www.w3.org/1999/xlink">
 <defs>
  <style type="text/css">
   <![CDATA[
    .fil0 {fill:#4C3B57}
   ]]>
  </style>
 </defs>
 <g id="Capa_x0020_1">
  <metadata id="CorelCorpID_0Corel-Layer"/>
  <g id="_2591422030128">
   <path class="fil0" d="M97.24 101.8l0 -44.76 11.8 0c0.61,0 0.8,0.19 0.8,0.81l0 43.95c0,0.62 -0.19,0.8 -0.8,0.8l-10.99 0c-0.62,0 -0.81,-0.18 -0.81,-0.8zm-51.18 0.8c-13.08,0 -11.77,0.86 -10.42,-3.18l17.02 -48.91c0.46,-1.36 0.91,-2.47 1.2,-3.88 1.12,-5.31 -3.9,-4.06 15.51,-4.06 0.96,0 1.24,1.68 1.78,3.32l18.86 53.23c1.85,4.65 2.67,3.48 -10.99,3.48 -1.88,0 -2.25,-3.13 -3.38,-6.53 -0.64,-1.9 -2.37,-5.94 -2.52,-7.67l-21.7 0 -3.45 11.02c-0.35,1.06 -0.73,3.18 -1.91,3.18zm50.38 -57.35c0,-4.3 2.69,-7.1 6.79,-7.39 6.98,-0.49 9.32,7.42 5.74,11.88 -3.71,4.6 -12.53,1.97 -12.53,-4.49zm-90.05 -14.2l0 87.9c0,6.46 3.36,12.05 7.44,16.15 3.6,3.62 9.58,6.9 16.68,6.9l88.98 0c9.69,0 18.03,-6.14 21.71,-13.66 1.1,-2.24 2.41,-6.06 2.41,-9.39l0 -87.9c0,-11.63 -11.06,-23.05 -24.12,-23.05l-88.98 0c-13.03,0 -24.12,11.39 -24.12,23.05z"/>
   <path class="fil0" d="M54.9 76.88l14.47 0c-0.03,-1.6 -1.19,-4.37 -1.61,-5.9l-3.65 -11.9c-0.41,-1.22 -1.68,-5.07 -1.71,-6.06l-0.53 0c-0.47,2.02 -1.11,3.79 -1.71,5.8l-4.4 14.9c-0.3,1.09 -0.77,2.12 -0.86,3.16z"/>
  </g>
 </g>
</svg>
