<?xml version="1.0" encoding="UTF-8"?>
<!DOCTYPE svg PUBLIC "-//W3C//DTD SVG 1.1//EN" "http://www.w3.org/Graphics/SVG/1.1/DTD/svg11.dtd">
<!-- Creator: CorelDRAW 2018 (64 Bit) -->
<svg xmlns="http://www.w3.org/2000/svg" xml:space="preserve" width="150px" height="150px" version="1.1" style="shape-rendering:geometricPrecision; text-rendering:geometricPrecision; image-rendering:optimizeQuality; fill-rule:evenodd; clip-rule:evenodd"
viewBox="0 0 150 150"
 xmlns:xlink="http://www.w3.org/1999/xlink">
 <defs>
  <style type="text/css">
   <![CDATA[
    .fil0 {fill:#4C3B57}
   ]]>
  </style>
 </defs>
 <g id="Capa_x0020_1">
  <metadata id="CorelCorpID_0Corel-Layer"/>
  <path class="fil0" d="M39.75 91.02l10.5 0c0.37,1.58 0.38,3.41 0.52,5.23 0.13,1.72 0.48,3.61 0.48,5.52l7.75 1.5 0 -70.76 10.5 0 0 83.51 -27.99 -5.52c-0.02,-3.45 -1.76,-16.6 -1.76,-19.48zm74.75 -48.01l-23.5 0 0 26.75 21.25 0c-0.45,0.94 -1.86,21.61 -2.39,25.36l-1.36 15.4 -27.99 5.57 -0.01 -10.82c1.24,-0.03 3.14,-0.55 4.44,-0.81l9.16 -1.84c1.38,-0.27 3.38,-0.82 4.65,-0.85l1.75 -21.5 -20 0 0 -47.76 35 0c0,1.72 -0.36,3.68 -0.48,5.27 -0.14,1.81 -0.15,3.64 -0.52,5.23zm24.5 -32.01l-128 0 5.93 65.83c0.79,6.15 1.11,15.11 2,22.01l1.32 14.68c0.09,2.24 0.42,5.27 0.68,7.32 0.15,1.17 0.27,2.66 0.32,3.69 0.06,1.5 0.25,2.08 0.25,3.74 1.11,0.54 24.77,5.09 26.56,5.44l20 4.01c8.46,1.69 5.28,1.72 13.67,0.04 4.63,-0.93 45.53,-8.89 46.77,-9.49l1.93 -21.82c0.79,-6.15 1.11,-15.1 2,-22l2.61 -29.4c0.49,-4.65 0.8,-10.05 1.39,-14.61 0.79,-6.14 1.17,-15.53 2,-22.01l0.57 -7.43z"/>
 </g>
</svg>
