<?xml version="1.0" encoding="UTF-8"?>
<!DOCTYPE svg PUBLIC "-//W3C//DTD SVG 1.1//EN" "http://www.w3.org/Graphics/SVG/1.1/DTD/svg11.dtd">
<!-- Creator: CorelDRAW 2018 (64 Bit) -->
<svg xmlns="http://www.w3.org/2000/svg" xml:space="preserve" width="150px" height="150px" version="1.1" style="shape-rendering:geometricPrecision; text-rendering:geometricPrecision; image-rendering:optimizeQuality; fill-rule:evenodd; clip-rule:evenodd"
viewBox="0 0 150 150"
 xmlns:xlink="http://www.w3.org/1999/xlink">
 <defs>
  <style type="text/css">
   <![CDATA[
    .fil0 {fill:#4C3B57}
   ]]>
  </style>
 </defs>
 <g id="Capa_x0020_1">
  <metadata id="CorelCorpID_0Corel-Layer"/>
  <g id="_2591238239424">
   <path class="fil0" d="M86.82 7.08l0.27 5.91c0,3.94 -2.51,10.6 -5.25,12.73 -2.11,1.64 -2.5,2.49 -6.24,5.04 -1.48,1 -2.75,1.94 -4.24,3.01 -3.25,2.35 -3.3,2.55 -6.1,4.91 -4.63,3.9 -9.17,10.06 -9.79,16.26 -0.14,1.45 0.5,4.98 0.91,6.21 0.71,2.11 1.27,3.53 2.26,5.25 2.26,3.91 6.53,9.3 9.96,12.05 0.78,0.62 1.1,1.08 1.99,1.78 2.23,1.73 1.58,0.68 2.54,0.68 0.46,-1.99 -0.53,-2.74 -1.81,-5.72 -2.49,-5.84 -5.17,-13.2 -5.17,-20.06 0,-4.12 6.52,-8.83 9.06,-11.06 4.36,-3.81 6.3,-4.91 10.74,-9.4l4.27 -5.67c1.37,-2.5 2.26,-4.66 2.51,-7.68 0.38,-4.43 -0.44,-8.41 -2.33,-12.18 -0.94,-1.87 -1.45,-2.67 -1.9,-2.86l-0.49 0c-0.32,0.12 -0.67,0.44 -1.19,0.8z"/>
   <path class="fil0" d="M24 127.62c0,8.41 20.51,8.22 25.7,8.93 7.41,1.01 25.86,0.29 33.36,-0.07 6.94,-0.34 30.81,-3.56 34.95,-8.54 4.12,-4.95 -3.07,-8.07 -2.73,-5.96l0.31 2.14c-3.76,2.49 -21.35,5.32 -27.97,5.64 -1.85,0.09 -4.46,0.15 -6.28,0.43l-13.05 0.38c-8.42,0 -22.63,-0.9 -30.6,-2.95 -2.47,-0.63 -2.93,-0.51 -3.22,-1.61 1.7,-0.4 4.03,-1.81 9.29,-2.8 1.12,-0.2 2.52,-0.32 2.52,-1.5 0,-2.07 -3.96,-0.95 -5.65,-0.82 -2.59,0.2 -4.87,0.33 -7.04,0.75 -3.76,0.72 -9.59,1.8 -9.59,5.98z"/>
   <path class="fil0" d="M58.9 95.94c12.55,0 25.88,-0.06 37.31,-5.11 1.86,-0.82 6.72,-2.72 6.72,-4.56 0,-2 -3.22,-0.53 -6.91,0.08 -5.17,0.86 -8.45,1.1 -13.51,1.52 -1.21,0.1 -2.45,-0.08 -3.67,0.09 -2.09,0.28 -4.79,0.18 -7.06,0.19 -2.08,0 -3.52,0.39 -7.25,0.28 -1.4,-0.04 -1.83,-0.29 -3.48,-0.28l-10.69 -0.58c-0.97,-0.11 -2.22,-0.47 -3.27,-0.49 0.25,-0.95 0.42,-0.89 2.52,-1.77 3.74,-1.55 9.56,-2.09 9.56,-3.6 0,-0.64 -0.44,-0.79 -0.81,-1.34l-7.48 0.31c-3.59,0.39 -9.99,1.21 -13.01,2.82 -5.34,2.85 -4.29,8.42 6.69,10.94 4.17,0.95 9.38,1.5 14.34,1.5z"/>
   <path class="fil0" d="M81.72 76.61c0,6.84 -3.63,7.95 -1.08,9.66 2.65,-0.61 9.94,-7.87 9.94,-14.49 0,-11.98 -15.32,-12.55 1.14,-27.05l4.99 -4.4c0.89,-0.72 1.63,-1.28 2.54,-2.02 0.72,-0.59 2.33,-1.45 2.33,-2.5 0,-2.58 -5.43,0.52 -7.96,1.69 -6.77,3.14 -19.09,10.26 -20.05,18.63 -0.57,4.97 1.63,10.56 4.54,14.42 1.57,2.08 3.61,3.95 3.61,6.06z"/>
   <path class="fil0" d="M48.43 115.81c0,7.68 18.36,8.32 24.16,8.32 4.65,0 9.69,-0.56 13.63,-1.41 1.98,-0.43 4.01,-0.93 5.93,-1.58 0.86,-0.29 1.87,-0.57 2.81,-0.96 1.35,-0.55 1.44,-0.52 2.06,-1.69 -0.69,-1.3 -1.81,-1.7 -3.81,-2.9 -5.13,-3.09 -3.27,-2.72 -8,-1.93l-7.89 1.24c-5.56,0.84 -15.26,-0.27 -20.57,-1.51 0.54,-0.81 1.4,-1.95 -0.18,-2.47 -1,-0.32 -8.14,0.42 -8.14,4.89z"/>
   <path class="fil0" d="M44.4 101.58c0,3.97 6.82,5.73 10.45,6.46 6.9,1.4 6.48,0.73 11.41,1.21 0.81,0.08 2.55,-0.17 3.91,-0.16 5.8,0.05 16.55,-1.83 22.49,-3.02 2.61,-0.52 5.3,-0.69 6.51,-2.08 -0.39,-1.65 -1.81,-2.02 -3,-2.91 -4.97,-3.69 -3.12,-2.4 -8.85,-1.42 -10.51,1.82 -13.33,1.92 -24.13,1.92 -3.41,0 -9.13,-0.48 -11.27,-1.61 0.47,-0.7 0.43,-0.62 1.09,-1.06 2.51,-1.66 0.9,-3.86 -5.2,-0.9 -1.18,0.57 -3.41,2.04 -3.41,3.57z"/>
   <path class="fil0" d="M43.6 139.16c0,1.59 4.69,1.9 6.86,2.26 2.69,0.45 5.33,0.9 7.95,1.18 5.75,0.63 11.33,1.01 16.9,1.12l7.43 0c4.6,-0.09 9.24,-0.37 13.99,-0.83 8.66,-0.83 24.58,-2.54 27.94,-12.09 0.12,-0.36 0.63,-3.66 -2.72,-1.07 -2.61,2.01 -6.3,3.73 -9.4,4.83 -5.94,2.11 -13.01,3.19 -19.29,3.53l-13.97 0.26c-1.32,0.04 -1.34,0.24 -2.66,0.28 -4.43,0.14 -7.98,-0.29 -11.29,-0.28 -3.47,0.02 -8.19,0.27 -11.53,-0.01 -1.73,-0.14 -3.26,-0.25 -5.38,-0.25 -1.61,0 -4.83,-0.58 -4.83,1.07z"/>
   <path class="fil0" d="M104.54 82.25c0,1.92 3.07,0.7 7.76,2.44 2.31,0.86 4.85,2.64 4.85,5.34 0,1.85 -1.59,4.01 -2.41,5.1 -1.27,1.7 -2.18,2.59 -3.69,4.1l-4.21 3.58c-1.39,1.04 -4.18,2.49 -4.18,3.87 0,2.18 5.78,-0.2 7.29,-0.77l3.68 -1.42c3.2,-1.31 5.52,-2.99 8.09,-5.05 0.72,-0.57 0.68,-0.72 1.28,-1.41 5.94,-6.86 2.31,-16.59 -4.39,-18.85 -5.22,-1.75 -14.07,1.32 -14.07,3.07z"/>
  </g>
 </g>
</svg>
