<?xml version="1.0" encoding="UTF-8"?>
<!DOCTYPE svg PUBLIC "-//W3C//DTD SVG 1.1//EN" "http://www.w3.org/Graphics/SVG/1.1/DTD/svg11.dtd">
<!-- Creator: CorelDRAW 2018 (64 Bit) -->
<svg xmlns="http://www.w3.org/2000/svg" xml:space="preserve" width="150px" height="150px" version="1.1" style="shape-rendering:geometricPrecision; text-rendering:geometricPrecision; image-rendering:optimizeQuality; fill-rule:evenodd; clip-rule:evenodd"
viewBox="0 0 150 150"
 xmlns:xlink="http://www.w3.org/1999/xlink">
 <defs>
  <style type="text/css">
   <![CDATA[
    .fil0 {fill:#4C3B57}
   ]]>
  </style>
 </defs>
 <g id="Capa_x0020_1">
  <metadata id="CorelCorpID_0Corel-Layer"/>
  <g id="_2591414694208">
   <path class="fil0" d="M142 8c-3.74,0 -29.16,2.97 -34.05,3.38l-21.46 2.09c-1.41,0.11 -1.19,-0.29 -1.57,3.14 -1.06,9.78 -3.18,21.49 -4.13,31.22 -0.1,1.04 0.25,1.52 -0.64,1.35l-3.01 -1.7c-6.5,-2.6 -12.57,-1.16 -17.39,3.64 -1.81,1.8 -2.67,3.16 -3.63,5.79 -0.73,2 -1.14,5.83 -0.5,8.42 3.19,12.82 18.99,17.28 28.08,6.07 3.27,-4.03 3.24,-9.66 3.97,-14.87 0.4,-2.84 0.74,-5.7 1.12,-8.31l2.2 -16.64c0.3,-2.74 0.75,-5.42 1.1,-8.33 0.29,-2.38 -1.35,-2.41 6.47,-2.94 2.93,-0.2 5.64,-0.57 8.61,-0.82l25.67 -2.59c-0.09,1.03 -0.38,2.36 -0.5,3.42l-1.35 10.43c-0.35,3.04 -1.81,11.87 -1.81,13.89 -5.28,-3.53 -9.68,-4.31 -15.67,-2.06 -4.16,1.56 -8.29,6.2 -9.31,11.11 -2.47,11.89 8.44,22.04 20.04,18.47 4.97,-1.53 8.7,-5.15 10.34,-10.08 0.87,-2.6 6.19,-43.23 6.87,-49.39 0.19,-1.62 0.55,-3.07 0.55,-4.69z"/>
   <path class="fil0" d="M17.16 95.15c0.23,2.82 4.15,21.49 4.19,23.3 -3.84,0 -7.07,0.18 -10.15,3.46 -1.99,2.11 -2.97,4.52 -3.2,6.92l0 2.18c0.53,5.8 5.23,10.99 10.73,10.99 3.93,0 6.73,-0.73 9.5,-3.59 4.94,-5.12 2.92,-10.72 2.09,-15.59 -0.52,-2.99 -4,-20.96 -4,-22.96l16.49 -7.33c0.89,-0.44 4.86,-2.28 5.76,-2.35 0,1.21 0.33,2.54 0.52,3.67 0.21,1.27 0.41,2.38 0.67,3.77 0.49,2.57 0.87,5.09 1.42,7.48 -4.22,0 -6.06,-0.04 -9.51,2.79 -1.17,0.96 -1.96,1.93 -2.7,3.31 -4.04,7.51 0.83,17.45 10.64,17.45 6.1,0 11.52,-5.18 11.52,-11.25 0,-4.97 -4.72,-27.52 -5.79,-33.99 -0.23,-1.36 -0.75,-3.22 -0.75,-4.75 -0.97,0.08 -8.03,3.39 -9.34,4.02 -1.62,0.79 -3.11,1.28 -4.71,2.09 -0.89,0.45 -1.45,0.62 -2.36,1.05 -2.61,1.21 -20.02,9.25 -21.02,9.33z"/>
   <path class="fil0" d="M27.89 47.78c-3.54,0 -5.59,-0.34 -9.2,2.58 -8.18,6.6 -3.68,20.98 7.63,20.98 3.28,0 6.3,-1.59 8.05,-3.21 6.21,-5.73 3.12,-13.07 1.57,-20.81 -0.72,-3.61 -1.44,-7.67 -2.29,-11.32l5.18 3.19c1.12,0.72 4.28,3.09 5.29,3.36 0.81,-0.6 3.67,-5.38 4.45,-6.55l-13.3 -8.68c-1.05,-0.7 -12.04,-8.48 -13.4,-8.59 0.49,1.02 2.61,12.4 3.03,14.5l2.99 14.55z"/>
   <path class="fil0" d="M102.48 106.67c-3.15,-2.11 -2.96,-3.4 -9.42,-3.4 -3.72,0 -6.69,2.4 -8.56,4.78 -2.49,3.16 -2.93,8.4 -1.04,12.15 1.12,2.24 1.85,3.03 3.69,4.42 4.54,3.45 11.18,2.86 15.4,-1.39 2.45,-2.46 6.02,-11.22 7.87,-14.9 0.58,-1.17 3.02,-6.73 3.84,-7.68l4.19 11.78 7.32 -2.62c-0.09,-1.08 -5.7,-16.56 -6.44,-18.68l-4.02 -11.16c-0.75,0.55 -0.51,0.46 -0.91,1.46 -0.27,0.69 -0.43,0.96 -0.75,1.6l-8.03 16.84c-0.55,1.12 -1.06,2.12 -1.66,3.31 -0.43,0.85 -1.28,2.64 -1.48,3.49z"/>
  </g>
 </g>
</svg>
