<?xml version="1.0" encoding="UTF-8"?>
<!DOCTYPE svg PUBLIC "-//W3C//DTD SVG 1.1//EN" "http://www.w3.org/Graphics/SVG/1.1/DTD/svg11.dtd">
<!-- Creator: CorelDRAW 2018 (64 Bit) -->
<svg xmlns="http://www.w3.org/2000/svg" xml:space="preserve" width="150px" height="150px" version="1.1" style="shape-rendering:geometricPrecision; text-rendering:geometricPrecision; image-rendering:optimizeQuality; fill-rule:evenodd; clip-rule:evenodd"
viewBox="0 0 150 150"
 xmlns:xlink="http://www.w3.org/1999/xlink">
 <defs>
  <style type="text/css">
   <![CDATA[
    .fil0 {fill:#4C3B57}
   ]]>
  </style>
 </defs>
 <g id="Capa_x0020_1">
  <metadata id="CorelCorpID_0Corel-Layer"/>
  <path class="fil0" d="M102.12 29c-0.74,0 -1.4,0.59 -1.4,1.41l0 25.69 -5.83 -3.39c-0.37,-0.22 -0.77,-0.32 -1.18,-0.32 -0.42,0 -0.83,0.1 -1.2,0.32l-13.99 8.16c-0.73,0.42 -1.18,1.2 -1.18,2.04l0 16.34c0,0.84 0.45,1.62 1.18,2.04l13.99 8.16c0.37,0.22 0.78,0.32 1.2,0.32 0.41,0 0.81,-0.1 1.18,-0.32l14 -8.16c0.72,-0.42 1.17,-1.2 1.17,-2.04l0 -8.17 0 -8.17 0 -28.15c0,-0.84 -0.44,-1.6 -1.15,-2.03l-6.1 -3.54c-0.22,-0.13 -0.46,-0.19 -0.69,-0.19l0 0zm-45.83 23.39c-0.41,0 -0.81,0.1 -1.18,0.32l-14 8.16c-0.72,0.42 -1.17,1.2 -1.17,2.04l0 16.34c0,0.84 0.45,1.62 1.17,2.04l14 8.16c0.73,0.42 1.64,0.42 2.38,0l13.99 -8.16c0.73,-0.42 1.18,-1.2 1.18,-2.04l0 -16.34c0,-0.84 -0.45,-1.62 -1.18,-2.04l-13.99 -8.16c-0.37,-0.22 -0.78,-0.32 -1.2,-0.32zm74.81 0c-0.41,0 -0.82,0.1 -1.19,0.32l-13.99 8.16c-0.73,0.42 -1.18,1.2 -1.18,2.04l0 16.34c0,0.84 0.45,1.62 1.18,2.04l13.57 8.2c0.73,0.45 1.65,0.45 2.39,0.03l6.67 -3.89c0.7,-0.4 0.7,-1.4 0,-1.81l-14.46 -8.51 0 -8.4 7.01 -4.07 7.01 4.07 0 5.85c0,0.78 0.67,0.9 1.11,0.63 1.75,-1.03 7.09,-4.13 7.09,-4.13 0.72,-0.4 1.16,-1.18 1.16,-2.01l0 -4.34c0,-0.84 -0.45,-1.62 -1.18,-2.04l-13.99 -8.16c-0.38,-0.22 -0.78,-0.32 -1.2,-0.32zm-112.2 0.01c-0.42,0 -0.83,0.1 -1.2,0.31l-13.99 8.16c-0.73,0.42 -1.18,1.2 -1.18,2.05l0 20.86c0,1.02 1.11,1.65 1.99,1.15l6.2 -3.62c0.72,-0.42 1.17,-1.19 1.17,-2.03l0 -12.35 7.01 -4.08 7.01 4.08 0 12.35c0,0.84 0.44,1.61 1.16,2.03l6.2 3.62c0.88,0.51 1.99,-0.13 1.99,-1.15l0 -20.86c0,-0.85 -0.45,-1.63 -1.18,-2.05l-13.99 -8.16c-0.37,-0.21 -0.78,-0.31 -1.19,-0.31l0 0zm74.81 10.44l7.01 4.08 0 4.16 0 4.16 -7.01 4.08 -7.03 -4.08 0 -8.32 7.03 -4.08zm37.39 3.58l-4.01 2.33 0 4.68 4.01 2.33 4.02 -2.33 0 -4.68 -4.02 -2.33zm-56.54 18.68c-0.48,0 -0.96,0.11 -1.39,0.35l-13.15 7.6c-0.86,0.47 -1.39,1.41 -1.39,2.39l0 15.17c0,0.99 0.56,1.91 1.39,2.4l3.47 1.97c1.66,0.82 2.27,0.83 3.02,0.83 2.48,0 3.89,-1.49 3.89,-4.1l0 -15c0,-0.23 -0.18,-0.4 -0.39,-0.4l-1.65 0c-0.24,0 -0.4,0.2 -0.4,0.4l0 15c0,1.13 -1.2,2.3 -3.16,1.32l-3.6 -2.08c-0.11,-0.07 -0.19,-0.2 -0.19,-0.35l0 -15.17c0,-0.13 0.06,-0.29 0.19,-0.36l13.16 -7.58c0.13,-0.07 0.29,-0.07 0.4,0l13.16 7.58c0.13,0.07 0.21,0.2 0.21,0.36l0 15.17c0,0.17 -0.1,0.3 -0.21,0.37l-13.16 7.61c-0.12,0.07 -0.29,0.07 -0.4,0l-3.37 -2c-0.09,-0.05 -0.23,-0.08 -0.31,-0.03 -0.93,0.56 -1.13,0.62 -1.99,0.91 -0.23,0.08 -0.54,0.22 0.12,0.59l4.36 2.58c0.44,0.24 0.91,0.37 1.39,0.37 0.5,0 0.99,-0.13 1.37,-0.38l13.15 -7.61c0.86,-0.47 1.39,-1.41 1.39,-2.4l0 -15.17c0,-0.98 -0.55,-1.89 -1.39,-2.39l-13.15 -7.6c-0.41,-0.24 -0.89,-0.35 -1.37,-0.35l0 0zm20.51 7c-1.34,0 -2.52,1.09 -2.52,2.52 0,1.39 1.14,2.53 2.52,2.53 1.39,0 2.52,-1.14 2.52,-2.53 0,-1.43 -1.15,-2.55 -2.52,-2.52zm-0.02 0.4c1.18,0 2.14,0.94 2.14,2.12 0,1.16 -0.97,2.11 -2.14,2.14 -1.17,0 -2.12,-0.96 -2.12,-2.14 0,-1.18 0.95,-2.12 2.12,-2.12zm-0.92 0.69l0 2.84 0.53 0 0 -1.14 0.5 0c0.21,0 0.25,0.09 0.3,0.25 0,0.02 0.09,0.75 0.12,0.9l0.58 0c-0.07,-0.15 -0.11,-0.53 -0.14,-0.76 -0.06,-0.37 -0.08,-0.62 -0.47,-0.64 0.2,-0.08 0.55,-0.19 0.55,-0.71 0,-0.74 -0.67,-0.74 -1,-0.74l-0.97 0 0 0zm0.53 0.45l0.46 0c0.14,0 0.41,0 0.41,0.38 0,0.17 -0.08,0.42 -0.44,0.41l-0.43 0 0 -0.79zm-16.57 2.33c-3.75,0 -5.98,1.59 -5.98,4.23 0,2.89 2.23,3.66 5.82,4.03 4.3,0.43 4.64,1.05 4.64,1.89 0,1.48 -1.18,2.09 -3.96,2.09 -3.49,0 -4.25,-0.87 -4.51,-2.59 -0.02,-0.19 -0.18,-0.32 -0.39,-0.32l-1.71 0c-0.2,0 -0.38,0.16 -0.38,0.39 0,2.21 1.2,4.84 6.96,4.84 4.22,0 6.61,-1.63 6.61,-4.5 0,-2.85 -1.91,-3.6 -5.96,-4.16 -4.1,-0.54 -4.51,-0.81 -4.51,-1.77 0,-0.79 0.34,-1.83 3.37,-1.83 2.71,0 3.71,0.59 4.13,2.4 0.04,0.18 0.17,0.3 0.35,0.3l1.71 0c0.11,0 0.21,-0.05 0.27,-0.12 0.07,-0.08 0.12,-0.17 0.09,-0.28 -0.27,-3.15 -2.34,-4.6 -6.55,-4.6l0 0z"/>
 </g>
</svg>
