<?xml version="1.0" encoding="UTF-8"?>
<!DOCTYPE svg PUBLIC "-//W3C//DTD SVG 1.1//EN" "http://www.w3.org/Graphics/SVG/1.1/DTD/svg11.dtd">
<!-- Creator: CorelDRAW 2018 (64 Bit) -->
<svg xmlns="http://www.w3.org/2000/svg" xml:space="preserve" width="150px" height="150px" version="1.1" style="shape-rendering:geometricPrecision; text-rendering:geometricPrecision; image-rendering:optimizeQuality; fill-rule:evenodd; clip-rule:evenodd"
viewBox="0 0 150 150"
 xmlns:xlink="http://www.w3.org/1999/xlink">
 <defs>
  <style type="text/css">
   <![CDATA[
    .fil0 {fill:#4C3B57}
   ]]>
  </style>
 </defs>
 <g id="Capa_x0020_1">
  <metadata id="CorelCorpID_0Corel-Layer"/>
  <g id="_2591240941424">
   <path class="fil0" d="M55.14 81.3l-6.54 -0.25 0 24.46 -15.26 0 0 -67.32 20.35 -1.46c5.73,0 13.7,0.88 18.42,3.62 0.96,0.56 1.83,0.98 2.69,1.67 4.34,3.49 7.47,8.96 7.47,14.82 0,6.79 -0.99,11.75 -5.51,16.53l-0.81 0.88c-4.58,4.41 -12.62,7.05 -20.81,7.05zm60.79 -13.08c-1.28,-0.3 -4.87,-2.56 -9.21,-2.67 -3.08,-0.08 -7.5,-0.37 -7.5,4.36 0,4.73 13.31,4.99 18.55,11.97 3.56,4.74 3.69,11.89 0.68,16.47 -1.23,1.89 -2.63,3.26 -4.5,4.46 -8.2,5.23 -22.75,4.5 -30.72,0.28l2.73 -10.88c0.98,0.23 1.7,0.79 2.6,1.2 0.82,0.36 2.06,0.81 2.99,1.13 3.47,1.15 14.21,3.04 14.21,-2.34 0,-3.59 -1.3,-4.04 -5.68,-5.71 -2.65,-1.02 -4.94,-1.82 -7.32,-3.09 -1.7,-0.91 -4.5,-3.16 -5.69,-4.73 -7.17,-9.44 0.71,-23.77 16.75,-23.77 2.88,0 5.31,0.38 7.77,0.71 2.98,0.39 5.04,1.55 6.76,1.95 0,2 -2.37,8.51 -2.42,10.66zm-102.93 -48.44l0 109.95c0,3.81 3.46,7.27 7.27,7.27l109.46 0c3.81,0 7.27,-3.46 7.27,-7.27l0 -109.95 0 -0.08c-0.04,-1.79 -1.25,-3.48 -2.36,-4.59 -1.11,-1.11 -2.7,-2.08 -4.81,-2.11l-0.1 0 -109.46 0c-3.94,0 -7.27,3.85 -7.27,6.78z"/>
   <path class="fil0" d="M48.6 48.84l0 20.35c1.33,0.11 2.9,0.48 4.36,0.48 5.21,0 10.83,-1.52 13,-5.89 1.74,-3.49 1.76,-7.93 -0.51,-11.2 -2.9,-4.19 -8.08,-4.22 -12.49,-4.22 -1.84,0 -2.75,0.48 -4.36,0.48z"/>
  </g>
 </g>
</svg>
