<?xml version="1.0" encoding="UTF-8"?>
<!DOCTYPE svg PUBLIC "-//W3C//DTD SVG 1.1//EN" "http://www.w3.org/Graphics/SVG/1.1/DTD/svg11.dtd">
<!-- Creator: CorelDRAW 2018 (64 Bit) -->
<svg xmlns="http://www.w3.org/2000/svg" xml:space="preserve" width="150px" height="150px" version="1.1" style="shape-rendering:geometricPrecision; text-rendering:geometricPrecision; image-rendering:optimizeQuality; fill-rule:evenodd; clip-rule:evenodd"
viewBox="0 0 150 150"
 xmlns:xlink="http://www.w3.org/1999/xlink">
 <defs>
  <style type="text/css">
   <![CDATA[
    .fil0 {fill:#4C3B57}
   ]]>
  </style>
 </defs>
 <g id="Capa_x0020_1">
  <metadata id="CorelCorpID_0Corel-Layer"/>
  <g id="_2591417966288">
   <path class="fil0" d="M76.35 57.37c5.23,0 13.1,-0.61 16.26,3.78 0.87,1.2 0.96,2.14 1.35,3.8l0.39 -0.96c2.08,-8.1 -2.77,-6.62 17.21,-6.62 5.82,0 10.62,1.45 13,6.22 3.57,7.15 -0.56,16.14 -5.57,19.9 -5.17,3.88 -9.61,3.67 -18.26,3.67l-1.63 8.12c-0.55,2.46 -3.27,1.63 -8.93,1.63 -3.09,0 -1.58,-3.03 -1.16,-5.49 0.29,-1.7 0.53,-3.02 0.88,-4.53 -2.44,0.57 -6.04,0.27 -8.66,0.27 -2.7,0 -1.49,-3 -0.88,-6.03 0.32,-1.62 0.62,-2.95 0.88,-4.53 1.77,-10.82 4.52,-10.56 -5.96,-10.56 -1.1,0 -1.3,3.01 -1.69,5.07l-2.18 11.37c-0.98,5.74 -0.21,4.68 -9.67,4.68 -0.73,0 -0.75,-0.13 -1.35,-0.27 -0.83,-3.47 0.81,-4.55 0.81,-8.13 -2.15,2.47 -2.97,4.21 -6.51,6.23 -4.33,2.48 -10.88,2.17 -16.24,2.17 -0.04,1.56 -0.65,3.92 -0.97,5.53 -0.99,4.97 0.04,4.22 -9.05,4.22 -3.59,0 -2.15,-2.67 -0.93,-8.78l5.15 -26.54c0.19,-0.97 0.29,-1.8 0.54,-2.71 0.28,-1.06 0.51,-1.51 1.74,-1.51l14.89 0c6.35,0 11.53,2.17 13.36,8.03 0.01,0.02 0.19,0.58 0.2,0.62l3.26 -14.59c0.89,-4.52 -0.04,-3.81 8.91,-3.81 0.94,0 1.05,0.2 1.9,0.27 0.81,3.39 -1.01,6.15 -1.09,9.48zm67.98 16.42l0 2.46c-0.2,3.42 -1.26,6.8 -3.19,9.88 -3.18,5.08 -8.25,9.53 -13.41,12.59 -28.72,17.02 -76.29,17.33 -105.63,-0.1 -1.45,-0.86 -2.52,-1.64 -3.86,-2.64 -3.67,-2.75 -7.08,-6.04 -9.48,-10.01 -2.67,-4.43 -3.09,-7.35 -3.09,-12.35 0,-6.86 4.97,-12.68 9.14,-16.86 2.5,-2.53 8.31,-6.23 11.62,-7.88 1.6,-0.79 2.8,-1.37 4.42,-2.08 12.46,-5.46 27.58,-8.39 44.96,-8.39 19.95,0 53.89,6.44 65.43,25.57 1.86,3.07 2.89,6.43 3.09,9.81z"/>
   <path class="fil0" d="M100.73 79.85c1.15,-4.95 1.83,-10.23 2.98,-15.17 9.37,0 12.18,-0.74 12.18,5.96 0,3.07 -1.6,6.62 -4.23,7.95 -3.13,1.59 -6.44,1.26 -10.93,1.26zm-11.11 15.71l8.13 0c0.03,-1.42 0.75,-4.18 1.02,-5.49 0.92,-4.58 0.06,-4.31 2.48,-4.29 4.3,0.04 9.05,0.19 12.36,-0.91 12.23,-4.05 16.09,-23.69 1.94,-25.8 -5.63,-0.84 -12.76,-0.35 -18.88,-0.35l-1.74 9.1c-0.66,3.24 -1.18,6.16 -1.81,9.3l-3.5 18.44z"/>
   <path class="fil0" d="M43.58 79.85l-4.87 0c0,-1.91 2.71,-13.26 2.71,-15.17 6,0 12.46,-1.06 12.46,4.88 0,7.07 -3.83,10.29 -10.3,10.29zm-15.97 15.71c9.62,0 7.76,1.22 8.78,-4.49 0.28,-1.62 0.93,-3.76 0.97,-5.26 6.99,0 14.68,0.68 19.43,-4.13 1.69,-1.72 2.52,-2.38 3.68,-4.72 2.41,-4.83 3.12,-12.18 -1.91,-15.88 -2.15,-1.59 -5.15,-2.36 -8.75,-2.36l-14.62 0c-0.99,0 -0.81,0.72 -0.98,1.73 -0.95,5.41 -6.6,32.68 -6.6,35.11z"/>
   <path class="fil0" d="M61.46 85.81c9.81,0 7.61,1.32 8.82,-4.72l3.09 -16.14c2.4,0 8.74,-0.42 9.97,0.6 1.61,1.33 0.52,4.53 0.12,6.51l-1.76 9.07c-0.23,1.18 -0.74,3.24 -0.74,4.68l8.12 0c0.03,-1.19 0.59,-3.61 0.84,-4.86 0.61,-3.04 2.68,-12.72 2.68,-15.19 0,-8.25 -10.86,-7.04 -17.87,-7.04 0.05,-2.43 1.62,-7.12 1.62,-9.75l-7.85 0 -3.59 18.35c-0.57,2.85 -1.18,6.2 -1.76,9.07 -0.32,1.63 -0.59,2.95 -0.9,4.52 -0.27,1.32 -0.79,3.39 -0.79,4.9z"/>
   <path class="fil0" d="M40.33 78.49c3.61,0 7.59,0.36 9.97,-2.22 1.53,-1.67 2.22,-4.36 2.22,-7.25 0,-3.8 -6.37,-2.98 -10.02,-2.98 0,2.18 -2.17,10.27 -2.17,12.45z"/>
   <path class="fil0" d="M102.35 78.49c6.82,0 10.2,-0.01 11.82,-5.52 2.28,-7.74 -2.44,-6.93 -9.38,-6.93 -0.95,4.07 -1.49,8.38 -2.44,12.45z"/>
  </g>
 </g>
</svg>
