<?xml version="1.0" encoding="UTF-8"?>
<!DOCTYPE svg PUBLIC "-//W3C//DTD SVG 1.1//EN" "http://www.w3.org/Graphics/SVG/1.1/DTD/svg11.dtd">
<!-- Creator: CorelDRAW 2018 (64 Bit) -->
<svg xmlns="http://www.w3.org/2000/svg" xml:space="preserve" width="150px" height="150px" version="1.1" style="shape-rendering:geometricPrecision; text-rendering:geometricPrecision; image-rendering:optimizeQuality; fill-rule:evenodd; clip-rule:evenodd"
viewBox="0 0 150 150"
 xmlns:xlink="http://www.w3.org/1999/xlink">
 <defs>
  <style type="text/css">
   <![CDATA[
    .fil0 {fill:#4C3B57}
   ]]>
  </style>
 </defs>
 <g id="Capa_x0020_1">
  <metadata id="CorelCorpID_0Corel-Layer"/>
  <g id="_2591417216768">
   <path class="fil0" d="M41.93 91.2c1.89,-1.04 6.13,-2.55 8.37,-3.26 2.42,-0.76 0.94,-0.65 3.09,-0.75 1.6,-0.37 0.73,-0.54 1.89,-0.64l1.97 -0.42c0.86,-0.29 3.15,-0.87 4.15,-0.9 0.21,-0.24 0.9,-0.3 1.37,-0.46 0.83,-0.29 0.74,0.07 1.42,-0.46 -0.14,-0.47 -0.22,-0.28 -0.5,-1.14 -0.32,-1.01 -1.31,-1.85 -1.94,-2.76l-0.26 -0.3c-0.02,-0.02 -0.13,-0.09 -0.22,-0.15l-0.55 -0.44c-0.01,0 -0.04,-0.01 -0.05,-0.02 -0.48,-0.21 -0.53,-0.59 -0.79,-0.77 -0.26,-0.19 -0.06,0.15 -0.89,-0.63 -0.25,-0.24 -0.29,-0.21 -0.51,-0.39l-0.22 -0.25c-0.01,-0.02 -0.03,-0.05 -0.04,-0.06l-0.14 -0.12c-0.62,-0.55 -0.54,-0.66 -1,-1.05 -0.01,-0.02 -0.04,-0.04 -0.05,-0.05 -0.06,-0.05 -1.06,-0.88 -1.44,-1.41 -0.37,-0.51 -1.4,-1.34 -1.87,-1.59l-1.09 -0.99c-0.21,-0.2 -0.29,-0.19 -0.48,-0.43 -0.2,-0.25 -0.59,-0.96 -0.74,-1.23 -1.5,0.11 -4.47,1.63 -5.55,1.7 -0.6,0.39 -1.23,0.44 -1.88,0.85 -0.61,0.38 -1.31,0.64 -2,0.83l-3.85 1.72c-0.65,0.35 -1.09,0.65 -1.73,0.99 -0.39,0.2 -0.6,0.22 -0.98,0.44 -0.33,0.19 -0.46,0.29 -0.91,0.5 -1.71,0.81 -1.46,1.08 -3.57,2.14 -0.3,0.3 -0.65,0.46 -1.01,0.86 0.19,0.59 0.06,0.88 0.03,1.15 -0.01,0.02 -0.01,0.05 -0.01,0.07 -0.08,1.58 -0.04,0.18 -0.32,1.02 -0.1,0.29 0.03,0.33 -0.16,0.45 -0.05,0.03 -0.25,0.05 -0.43,0.09 0.06,0.08 0.22,0.25 0.22,0.26 0.14,0.23 0.06,-0.11 0.05,0.46 0,0.02 0,0.06 0,0.08l0.01 0.5c0.07,0.78 -0.19,0.1 -0.02,1.21l0 0.89c-0.31,1.08 -0.62,0.26 -0.64,1.27l0.51 0.12c0,1.24 -0.26,0.63 -0.08,2.12l-0.11 1.54c-0.01,0.18 0.01,0.09 0.01,0.4 -0.01,0.84 -0.19,0.82 -0.28,1.31 -0.18,1.03 -0.31,0.84 -0.15,1.45l0.75 1.09c0.91,0.01 0.49,-0.3 0.91,-0.12 0.03,0.09 0.06,0.73 0,0.88 -0.14,0.31 -0.36,0.17 -0.55,0.25 0.03,1.11 -0.27,0.96 0.3,0.99l5.63 -3.76c0.48,-0.28 1.12,-0.33 1.75,-0.7 0.54,-0.32 0.86,-0.58 1.44,-0.89 0.94,-0.5 2.13,-1.32 3.14,-1.49z"/>
   <path class="fil0" d="M78.71 80.67c0.11,-0.23 -0.23,-0.05 0.3,-0.31 0.16,-0.07 0.38,-0.09 0.55,-0.12 0.37,-0.08 0.57,-0.13 0.9,-0.28l2.76 -0.87c1.79,-0.33 0.83,-0.26 2.5,-0.92l0.19 -0.29c0.11,-0.25 0.03,-0.4 -0.24,-0.62l-0.92 -0.61c-0.2,-0.14 -0.4,-0.22 -0.58,-0.33 -2.52,-1.48 -1.61,-0.87 -3.67,-2.41 -1.14,-0.86 -0.43,-0.2 -1.36,-1.1 -0.56,-0.54 -0.38,-0.15 -0.96,-0.85 -0.49,-0.6 -0.79,-0.72 -1.09,-0.91 -0.25,-0.16 0.13,0.27 -0.13,-0.09l-0.09 -0.29c-0.13,-0.14 -0.31,-0.29 -0.45,-0.44 -0.46,-0.46 0.03,0 -0.51,-0.38 -0.05,-0.04 -0.4,-0.35 -0.42,-0.37 -0.34,-0.43 0.13,-0.21 -0.91,-1.03 -0.13,-0.11 -0.27,-0.23 -0.4,-0.37 -0.15,-0.14 -0.85,-0.83 -0.9,-0.93 -0.28,-0.51 -0.03,-1.05 -0.03,-1.06 -0.37,-0.15 -0.82,-0.13 -1.35,-0.13 0.04,-0.02 0.08,-0.03 0.11,-0.04l0.88 -0.28c-2.19,0.21 -8.55,1.46 -11.21,2.03 -1.34,0.28 -7.49,1.85 -9.16,2.45 -0.61,0.21 -0.61,-0.02 -1.11,0.41 0.15,0.27 0.54,0.98 0.74,1.23 0.19,0.24 0.27,0.23 0.48,0.43l1.09 0.99c0.47,0.25 1.5,1.08 1.87,1.59 0.38,0.53 1.38,1.36 1.44,1.41 0.01,0.01 0.04,0.03 0.05,0.05 0.46,0.39 0.38,0.5 1,1.05l0.14 0.12c0.01,0.01 0.03,0.04 0.04,0.06l0.22 0.25c0.22,0.18 0.26,0.15 0.51,0.39 0.83,0.78 0.63,0.44 0.89,0.63 0.26,0.18 0.31,0.56 0.79,0.77 0.01,0.01 0.04,0.02 0.05,0.02l0.55 0.44c0.09,0.06 0.2,0.13 0.22,0.15l0.26 0.3c0.63,0.91 1.62,1.75 1.94,2.76 0.28,0.86 0.36,0.67 0.5,1.14 1.31,-0.07 0.95,-0.07 1.94,-0.45 0.67,-0.25 2.42,-0.47 2.8,-0.57l1.73 -0.57c0.47,-0.08 0.45,0.01 0.92,-0.15l1.7 -0.59c0.73,-0.2 1.16,-0.1 1.82,-0.39 1.16,-0.51 2.3,-0.65 3.61,-0.92z"/>
   <path class="fil0" d="M100.92 72.06c0.2,-0.23 -0.27,-0.09 0.42,-0.26 0.09,-0.02 0.35,-0.01 0.47,-0.01 0.43,-0.09 0.36,-0.59 1.03,-0.83 0.64,-0.23 0.7,0.01 1.41,-0.41 1.37,-0.82 1.59,-1.36 3.29,-2.13 0.82,-0.36 0.2,-0.34 1.04,-0.79 0.35,-0.18 0.83,-0.42 1.18,-0.62 0.64,-0.37 0.38,-0.51 1.12,-0.77 0.47,-0.37 1.16,-0.75 1.69,-1.19 0.76,-0.64 0.65,-0.74 1.64,-1.23 0.29,-0.4 0.68,-0.82 1.08,-1.09 0.21,-0.14 0.44,-0.24 0.64,-0.39 0.23,-0.16 0.3,-0.27 0.54,-0.45 0.24,-0.49 0.6,-0.72 1.03,-1.09 0.34,-0.29 0.87,-0.58 0.98,-0.98 0.18,-0.49 0.07,-0.51 -0.28,-0.73l-4.85 -3.97c-0.02,-0.01 -0.05,-0.04 -0.07,-0.05 -0.06,-0.06 -0.23,-0.23 -0.24,-0.23l-0.8 -0.25c-0.6,-0.02 0,0.1 -0.52,-0.26 -0.21,-0.15 -0.08,-0.08 -0.27,-0.11l-0.62 -0.06c-0.36,-0.07 0.17,-0.23 -0.36,-0.02l0.2 -0.46c0.01,-0.02 0.05,-0.05 0.07,-0.08l-0.49 0.12c-0.49,0.1 -1.81,0.91 -2.34,1.23 -0.68,0.4 -1.69,1.15 -2.58,1.11 -0.03,0.03 -0.07,0.09 -0.09,0.07l-3.91 2.08c-1.39,0.61 -3.17,1 -4.48,1.7 -0.62,0.33 -1.7,0.47 -2.38,0.74 -1.88,0.72 -1.57,0.72 -3.49,1.14 -1.02,0.22 -2.91,1.3 -3.43,0.88 -0.6,-0.17 -1.34,0.06 -1.84,0.37 -0.08,0.28 0.1,0.3 -0.45,0.38 -0.29,0.05 -0.46,-0.01 -0.79,0.05l-0.06 0.37c0.56,0.14 -0.4,-0.27 0.16,0 0.39,0.19 -0.09,0.23 0.12,0.13 0,0 -0.15,-0.64 1.01,-0.18 0.4,1.07 -0.2,0.08 -0.4,0.86 -0.01,0.02 -0.02,0.09 -0.02,0.12 -0.01,0.21 -0.01,-0.08 0.02,0.16l0.02 0.22c0,0.01 -0.01,0.05 -0.02,0.06 -0.2,0.9 -0.15,-0.12 0.39,0.77 0.34,0.57 -0.25,-0.07 0.16,0.37 0.12,0.12 0.13,0.08 0.16,0.09 0.76,0.38 0.32,0.1 0.67,0.5 0.38,0.44 0.17,0.42 0.48,0.84l1.04 1.11c0.01,0.01 0.04,0.03 0.05,0.04 0.01,0.01 0.04,0.04 0.04,0.05 0.01,0.01 0.04,0.04 0.04,0.05l3.08 2.76c0.49,0.5 0.25,0 0.65,0.3 0.02,0.01 0.04,0.04 0.06,0.05 0.25,0.23 0.07,0.2 0.46,0.45 0.02,0.01 0.05,0.03 0.07,0.04l0.8 0.58c0.46,0.35 0.28,0.36 0.73,0.49 0.02,0.01 0.06,0.01 0.08,0.02 0.09,0.03 0.17,0.05 0.26,0.09 0.3,0.14 0.28,0.15 0.48,0.32 0.39,0.34 0.28,0.19 0.32,0.42 1.13,-0.36 1.95,-0.67 3,-1.14 0.43,-0.19 1.7,-1.23 2.6,-1.35z"/>
   <path class="fil0" d="M23.89 104.15c0.6,-1.52 2.02,-2.01 2.97,-3.23 0.62,-0.8 0.46,-0.47 1.18,-1.14 0.22,-0.21 0.12,-0.12 0.35,-0.29 1.87,-1.41 0.48,0.24 1.58,-1.45 -0.57,-0.03 -0.27,0.12 -0.3,-0.99 0.19,-0.08 0.41,0.06 0.55,-0.25 0.06,-0.15 0.03,-0.79 0,-0.88 -0.42,-0.18 0,0.13 -0.91,0.12l-0.75 -1.09c-0.16,-0.61 -0.03,-0.42 0.15,-1.45 0.09,-0.49 0.27,-0.47 0.28,-1.31 0,-0.31 -0.02,-0.22 -0.01,-0.4l0.11 -1.54c-0.18,-1.49 0.08,-0.88 0.08,-2.12l-0.51 -0.12c0.02,-1.01 0.33,-0.19 0.64,-1.27l0 -0.89c-0.17,-1.11 0.09,-0.43 0.02,-1.21l-0.01 -0.5c0,-0.02 0,-0.06 0,-0.08 0.01,-0.57 0.09,-0.23 -0.05,-0.46 0,-0.01 -0.16,-0.18 -0.22,-0.26 0.18,-0.04 0.38,-0.06 0.43,-0.09 0.19,-0.12 0.06,-0.16 0.16,-0.45 0.28,-0.84 0.24,0.56 0.32,-1.02 0,-0.02 0,-0.05 0.01,-0.07 0.03,-0.27 0.16,-0.56 -0.03,-1.15 -0.77,0.34 -3.77,4.06 -4.65,5.22 -0.24,0.31 -0.43,0.44 -0.69,0.73 -0.47,0.54 -0.67,1.02 -1.13,1.58 -0.61,0.73 -2.01,3.14 -2.27,3.42l-3.12 5.27 -1.76 3.94c-0.28,0.7 -0.61,1.41 -0.88,1.94 -0.41,0.83 -0.85,2.83 -1.47,4.24 -0.26,0.61 -0.4,1.5 -0.6,2.24l0.31 0.18c0,0.93 -0.25,0.29 0.16,0.87 0.47,0.69 0.13,0.43 0.37,1.24l0.56 1.58c0.18,0.5 0.25,0.37 0.48,0.82l0.36 0.81c0.32,0.65 0.49,0.52 0.28,1.01 0.13,0.14 -0.23,0.17 0.29,0.08l2.07 -4.05c0.3,-0.36 0.27,-0.18 0.5,-0.64 0.27,-0.56 0.53,-1.05 0.84,-1.63 0.52,-0.98 1.4,-2.11 2.11,-2.8 0.39,-0.38 1.54,-2.34 2.2,-2.46z"/>
   <path class="fil0" d="M28.15 108.99c0.44,-0.08 2.08,-1.61 2.65,-2.07l5.82 -3.98c2.41,-1.63 7.05,-4 9.51,-5.24l6.82 -2.94 0.01 -0.05c0.17,-0.55 0.17,-0.59 0.4,-0.76l-0.37 -0.13c0.15,-0.18 0.84,-0.39 0.91,-1.27 0.26,0.57 0.14,0.26 0.22,0.23 0.06,-0.23 0.05,-0.25 0.18,-0.47 0.01,-0.03 0.04,-0.06 0.05,-0.08l0.11 -0.15c0.12,-0.2 0.05,-0.04 0.12,-0.23 0.01,-0.01 0.06,-0.19 0.07,-0.22l0.02 -2.3c0.4,0.18 0.48,-0.13 0.51,-0.68 -0.02,-0.01 -0.05,0.02 -0.05,0 -0.02,-0.09 -0.83,0.37 -0.86,-0.66 -0.36,0.45 -0.19,0.59 -0.44,-0.16 -0.17,-0.51 -0.33,-0.09 -0.44,-0.64 -2.15,0.1 -0.67,-0.01 -3.09,0.75 -2.24,0.71 -6.48,2.22 -8.37,3.26 0.52,0.02 0.22,-0.08 0.51,0.23 -0.31,0.2 0.15,-0.1 -0.21,0.54 -0.31,0.55 -0.53,0.38 -0.67,0.72 -0.19,0.48 0.14,0.43 0.42,0.61 -0.04,0.04 -0.23,0.23 -0.25,0.24 -0.3,0.22 0.09,0.05 -0.17,0.09 -0.11,0.01 -0.19,-0.03 -0.26,-0.06 -0.2,-0.08 0.02,0.03 -0.21,-0.13 -0.1,0.42 -0.13,0.45 -0.45,0.72 -0.08,0.07 -0.22,0.17 -0.22,0.17 -0.28,0.24 -0.52,0.51 -0.78,0.78 -0.65,0.68 -0.38,0.37 -1.18,0.62 -0.6,0.18 -0.47,0.05 -0.72,0.31 -1.47,1.5 -1.47,1.05 -2.03,1.58l-0.83 0.61c-1.14,0.79 -0.52,0.43 -1.51,1.45l-1.4 1.57c-0.41,0.5 -0.51,0.34 -1.32,1.69l-0.4 0.45c-0.37,0.17 -0.17,-0.12 -0.55,0.01 -0.06,0.29 0.11,-0.43 0.15,0.52 -0.58,0.15 -0.36,0.07 -0.47,0.55 -0.23,0.99 -0.35,1.13 -0.77,1.95 -0.07,0.14 -0.1,0.22 -0.16,0.36l-0.6 1.3c-0.37,1.21 -0.3,1.05 -0.01,1.01l0.31 -0.1z"/>
   <path class="fil0" d="M127.48 38.43c0.42,0 0.36,-0.02 0.72,0.19l2.43 1.24c0.68,0.14 0.7,0.32 1.01,-0.2l0.34 0.64c0.9,-0.8 0.47,-1.56 1.17,-1.97 0.24,-0.15 1.83,-0.57 2.28,-0.61 0.05,-0.7 0.93,-2.61 1.06,-3.71 0.06,-0.53 0.1,-0.36 0.22,-0.77 0.1,-0.36 0.05,-0.53 0.12,-0.9 0.08,-0.36 0.17,-0.33 0.25,-0.84l0.03 -0.73c-0.94,0.15 -0.67,0.88 -1.72,0.92 0,-1.32 0.52,-1.67 0.26,-2.2 -0.23,-0.46 -0.65,-0.52 -1.01,-0.68l-0.75 -0.34c-0.82,1.29 -2.36,4.68 -3.33,5.09 0.39,-1.63 1.59,-2.9 2.25,-4.22 0.37,-0.73 0.7,-1.54 1.03,-2.23 0.19,-0.41 0.29,-0.68 0.48,-1.05 0.24,-0.49 0.4,-0.57 0.61,-1.06 0.64,-1.52 3.09,-8.57 3.05,-9.91l-0.79 1.93c-2.94,7.8 -5.13,13.22 -11.35,19.04 -2.02,1.89 -2.23,2.1 -4.54,3.73 -0.46,0.32 -1.35,0.89 -1.65,1.18 0.39,0.14 0.35,-0.1 0.13,0.37 -0.01,0.01 -0.28,0.34 -0.31,0.36l-2.33 1.94c-1.98,1.83 -4.74,3.32 -7.56,3.72 -0.83,0.12 -1.76,0.08 -2.66,0.19 -0.65,0.08 -1.81,0.17 -2.03,-0.68 -1.17,0.15 -2.32,0.46 -3.35,0.83l-6.74 1.64c-0.56,0.12 -1.29,0.19 -1.79,0.29 -0.65,0.14 -1.17,0.35 -1.74,0.46 0.07,0.29 0.06,0.31 0.16,0.5 0.36,0.1 0.17,-0.18 0.26,0.23l0.66 -0.12c0.03,0 0.09,0.02 0.11,0.02l2.32 -0.06c0.8,-0.03 0.55,0.09 0.86,0.43 0.26,-0.28 0.09,-0.04 0.3,-0.38l0.14 0.49 1.33 -0.3c0.3,-0.03 0.38,0.01 0.65,-0.01l2.7 -0.09c0.03,0 0.28,0.04 0.33,0.05 0.37,0.01 0.33,0.1 0.53,-0.26 0.12,0.51 -0.08,0.49 1.02,0.14 0.54,-0.17 1.23,-0.1 1.75,-0.18 0.44,-0.06 0.33,-0.09 0.52,-0.13 0.21,-0.04 0.48,0.03 1.02,0.03 1.28,0.01 1.27,-0.17 1.94,-0.29 0.04,-0.01 0.41,-0.05 0.46,-0.06 1.05,-0.15 4.5,-1.37 5.67,-1.83 0.42,-0.17 0.22,-0.09 0.53,-0.25l5.58 -3.86 3.18 -2.76c0.29,-0.28 0.54,-0.49 0.8,-0.76 1.52,-1.53 0.86,-0.55 1.75,-1.22 0.75,-0.56 1.14,-1.48 2.08,-2.32 0.52,-0.46 0.56,-1.19 1.15,-1.81 0.23,-0.24 0.51,-0.42 0.71,-0.72 0.36,-0.55 0.01,-0.63 0.58,-0.85 0.3,0.69 -2.39,3.24 -2.88,4.71z"/>
   <path class="fil0" d="M95.32 74.55c-0.04,-0.23 0.07,-0.08 -0.32,-0.42 -0.2,-0.17 -0.18,-0.18 -0.48,-0.32 -0.09,-0.04 -0.17,-0.06 -0.26,-0.09 -0.02,-0.01 -0.06,-0.01 -0.08,-0.02 -0.45,-0.13 -0.27,-0.14 -0.73,-0.49l-0.8 -0.58c-0.02,-0.01 -0.05,-0.03 -0.07,-0.04 -0.39,-0.25 -0.21,-0.22 -0.46,-0.45 -0.02,-0.01 -0.04,-0.04 -0.06,-0.05 -0.4,-0.3 -0.16,0.2 -0.65,-0.3l-3.08 -2.76c0,-0.01 -0.03,-0.04 -0.04,-0.05 0,-0.01 -0.03,-0.04 -0.04,-0.05 -0.01,-0.01 -0.04,-0.03 -0.05,-0.04l-1.04 -1.11c-0.31,-0.42 -0.1,-0.4 -0.48,-0.84 -0.35,-0.4 0.09,-0.12 -0.67,-0.5 -0.03,-0.01 -0.04,0.03 -0.16,-0.09 -0.41,-0.44 0.18,0.2 -0.16,-0.37 -0.54,-0.89 -0.59,0.13 -0.39,-0.77 0.01,-0.01 0.02,-0.05 0.02,-0.06l-0.02 -0.22c-0.03,-0.24 -0.03,0.05 -0.02,-0.16 0,-0.03 0.01,-0.1 0.02,-0.12 0.2,-0.78 0.8,0.21 0.4,-0.86 -1.16,-0.46 -1.01,0.18 -1.01,0.18 -0.21,0.1 0.27,0.06 -0.12,-0.13 -0.56,-0.27 0.4,0.14 -0.16,0l0.06 -0.37c-0.55,0.16 -0.71,0.19 -1.39,0.28 -0.5,0.07 -0.65,0.23 -1.12,0.36 -0.8,0.22 -1.84,0.37 -2.63,0.52 -1.78,0.32 -3.73,0.59 -5.56,0.77l-0.88 0.24 -0.88 0.28c-0.03,0.01 -0.07,0.02 -0.11,0.04 0.53,0 0.98,-0.02 1.35,0.13 0,0.01 -0.25,0.55 0.03,1.06 0.05,0.1 0.75,0.79 0.9,0.93 0.13,0.14 0.27,0.26 0.4,0.37 1.04,0.82 0.57,0.6 0.91,1.03 0.02,0.02 0.37,0.33 0.42,0.37 0.54,0.38 0.05,-0.08 0.51,0.38 0.14,0.15 0.32,0.3 0.45,0.44l0.09 0.29c0.26,0.36 -0.12,-0.07 0.13,0.09 0.3,0.19 0.6,0.31 1.09,0.91 0.58,0.7 0.4,0.31 0.96,0.85 0.93,0.9 0.22,0.24 1.36,1.1 2.06,1.54 1.15,0.93 3.67,2.41 0.18,0.11 0.38,0.19 0.58,0.33l0.92 0.61c0.27,0.22 0.35,0.37 0.24,0.62l-0.19 0.29c2.03,-0.47 1.73,-0.62 2.58,-0.82 0.57,-0.14 0.74,-0.17 1.27,-0.4 0.5,-0.23 0.62,-0.08 1.2,-0.37 0.79,-0.4 1.44,-0.71 2.29,-1.07 0.7,-0.31 1.69,-0.48 2.26,-0.96z"/>
   <path class="fil0" d="M110.25 53.72c0.41,-0.66 1.44,-0.91 2.33,-1.72 0.49,-0.44 1.11,-0.73 1.66,-1.06 0.49,-0.3 0.29,-0.39 0.8,-0.62 0.63,-0.29 0.31,-0.05 0.79,-0.5 0.28,-0.26 0.47,-0.34 0.87,-0.44 0.15,-0.32 -0.04,-0.09 0.3,-0.46 0.08,-0.07 0.28,-0.21 0.37,-0.28 0.29,-0.22 0.44,-0.39 0.7,-0.53 0.23,-0.4 0.78,-0.85 1.16,-1.22 0.31,-0.3 0.31,-0.22 0.66,-0.5 0.36,-0.28 0.76,-0.92 1.85,-1.77 0.93,-0.72 0.59,-0.9 1.81,-1.81 0.32,-0.24 0.33,-0.34 0.55,-0.61 0.41,-0.5 0.91,-0.69 1.24,-1.21 0.43,-0.67 0.48,-0.67 1.07,-1.26 0.4,-0.41 0.74,-0.89 1.07,-1.3 0.49,-1.47 3.18,-4.02 2.88,-4.71 -0.57,0.22 -0.22,0.3 -0.58,0.85 -0.2,0.3 -0.48,0.48 -0.71,0.72 -0.59,0.62 -0.63,1.35 -1.15,1.81 -0.94,0.84 -1.33,1.76 -2.08,2.32 -0.89,0.67 -0.23,-0.31 -1.75,1.22 -0.26,0.27 -0.51,0.48 -0.8,0.76l-3.18 2.76 -5.58 3.86c-0.31,0.16 -0.11,0.08 -0.53,0.25 -1.17,0.46 -4.62,1.68 -5.67,1.83 -0.05,0.01 -0.42,0.05 -0.46,0.06 -0.67,0.12 -0.66,0.3 -1.94,0.29 -0.54,0 -0.81,-0.07 -1.02,-0.03 -0.19,0.04 -0.08,0.07 -0.52,0.13 -0.52,0.08 -1.21,0.01 -1.75,0.18 -1.1,0.35 -0.9,0.37 -1.02,-0.14 -0.2,0.36 -0.16,0.27 -0.53,0.26 -0.05,-0.01 -0.3,-0.05 -0.33,-0.05l-2.7 0.09c-0.27,0.02 -0.35,-0.02 -0.65,0.01l-1.33 0.3 -0.14 -0.49c-0.21,0.34 -0.04,0.1 -0.3,0.38 -0.31,-0.34 -0.06,-0.46 -0.86,-0.43l-2.32 0.06c-0.02,0 -0.08,-0.02 -0.11,-0.02l-0.66 0.12c-0.09,-0.41 0.1,-0.13 -0.26,-0.23 -0.1,-0.19 -0.09,-0.21 -0.16,-0.5 -1.39,0.3 -2.56,0.42 -3.85,0.77l-7.43 1.88c-0.29,0.1 -0.62,0.25 -0.85,0.3 -1.21,0.31 -0.3,-0.09 -1.81,0.54 -0.5,0.21 -0.64,0.02 -0.86,0.4l7.1 0.56c0.5,0.11 0.78,0.1 0.62,0.52 0.74,-0.2 4.66,-0.11 5.93,-0.2 1.92,-0.15 3.82,-0.16 5.74,-0.28 0.18,-0.38 0.21,-0.28 0.84,-0.32l3.11 -0.29c1.47,-0.15 2.12,-0.82 3.69,-0.68 0.65,-0.6 3.19,-1.2 4.12,-1.5 0.04,-0.03 0.09,-0.01 0.12,-0.07 0.02,-0.05 0.08,-0.04 0.11,-0.06l3.08 -1.24c1.92,-0.6 0.94,-0.49 2.13,-0.95 1.59,-0.61 0.66,-0.27 1.44,-0.85 0.56,-0.42 1.1,-0.54 1.84,-0.6 -0.21,1.37 -1.43,0.89 -2.78,2.11 -1.6,1.45 -1.62,0.91 -2.14,1.37 -1.68,1.49 -6.16,4.05 -6.43,4.46l0.34 0.1c0.89,0.04 1.9,-0.71 2.58,-1.11 0.53,-0.32 1.85,-1.13 2.34,-1.23z"/>
   <path class="fil0" d="M28.15 108.99l-0.31 0.1c-0.29,0.04 -0.36,0.2 0.01,-1.01l0.6 -1.3c0.06,-0.14 0.09,-0.22 0.16,-0.36 0.42,-0.82 0.54,-0.96 0.77,-1.95 0.11,-0.48 -0.11,-0.4 0.47,-0.55 -0.04,-0.95 -0.21,-0.23 -0.15,-0.52 0.38,-0.13 0.18,0.16 0.55,-0.01l0.4 -0.45c0.81,-1.35 0.91,-1.19 1.32,-1.69l1.4 -1.57c0.99,-1.02 0.37,-0.66 1.51,-1.45l0.83 -0.61c0.56,-0.53 0.56,-0.08 2.03,-1.58 0.25,-0.26 0.12,-0.13 0.72,-0.31 0.8,-0.25 0.53,0.06 1.18,-0.62 0.26,-0.27 0.5,-0.54 0.78,-0.78 0,0 0.14,-0.1 0.22,-0.17 0.32,-0.27 0.35,-0.3 0.45,-0.72 0.23,0.16 0.01,0.05 0.21,0.13 0.07,0.03 0.15,0.07 0.26,0.06 0.26,-0.04 -0.13,0.13 0.17,-0.09 0.02,-0.01 0.21,-0.2 0.25,-0.24 -0.28,-0.18 -0.61,-0.13 -0.42,-0.61 0.14,-0.34 0.36,-0.17 0.67,-0.72 0.36,-0.64 -0.1,-0.34 0.21,-0.54 -0.29,-0.31 0.01,-0.21 -0.51,-0.23 -1.01,0.17 -2.2,0.99 -3.14,1.49 -0.58,0.31 -0.9,0.57 -1.44,0.89 -0.63,0.37 -1.27,0.42 -1.75,0.7l-5.63 3.76c-1.1,1.69 0.29,0.04 -1.58,1.45 -0.23,0.17 -0.13,0.08 -0.35,0.29 -0.72,0.67 -0.56,0.34 -1.18,1.14 -0.95,1.22 -2.37,1.71 -2.97,3.23 0.37,-0.1 0.07,-0.05 0.24,0.02 0.01,0 0.04,0.02 0.05,0.02 0.01,0.01 0.04,0.04 0.05,0.04l0.05 0.64c-0.03,0.29 0.14,-0.11 -0.06,0.2 -0.39,0.61 -0.21,-0.01 -0.24,0.66l-0.82 2.35c-0.12,0.25 -0.36,0.5 -0.42,0.64 -0.09,0.18 -0.02,0.09 -0.11,0.37l-0.47 1.1c-0.24,0.54 -0.17,0.13 -0.26,0.73l-0.06 0.26c-0.01,0.01 -0.03,0.05 -0.03,0.06 -0.48,1.23 -0.26,1.17 -0.5,1.84l-0.13 0.33c-0.01,0.01 -0.01,0.05 -0.01,0.07 -0.02,0.13 0.04,0.1 0.03,0.37 0,0.02 -0.01,0.05 -0.01,0.07l-0.12 0.99c-0.02,0.29 0,0.37 0.32,0.48l1.57 -1.57c1.29,-1.27 2.26,-1.83 3.46,-3.14 0.87,-0.96 1.51,-1.1 1.73,-1.69z"/>
   <path class="fil0" d="M98.43 57.52l0.15 -0.14c1.01,-0.9 2.33,-1.41 2.26,-2.26l-3.51 -0.25c-0.5,-0.02 -0.7,-0.17 -1.47,-0.29 -1.92,0.12 -3.82,0.13 -5.74,0.28 -1.27,0.09 -5.19,0 -5.93,0.2 -0.46,0.18 -2.23,0.25 -2.8,0.24 -1.27,-0.02 -1.7,0.26 -2.81,0.27 -0.03,0.02 -0.08,0.04 -0.11,0.05l-0.73 0.18c-0.01,0.04 -0.06,0.02 -0.09,0.03 0.07,0.36 0.2,0.6 0.4,0.89l2.73 2.82c0.44,0.42 0.97,0.53 1.14,1.2 0.46,-0.5 0.22,-0.31 0.61,-0.23 1.09,0.22 0.33,-0.03 0.9,0.34l1.07 0.15c0.03,0.01 0.09,0 0.11,0 0.01,0.01 0.04,0.01 0.05,0.01 0.32,0.06 0.17,0.22 0.68,0.17l1.47 -0.04c-0.08,0.22 -0.09,0.21 -0.18,0.45 0.96,-0.08 2.68,-0.46 3.47,-0.82l2.93 -0.97c1.47,-0.49 2.63,-1.2 3.91,-1.74 0.47,-0.19 1,-0.38 1.49,-0.54z"/>
   <path class="fil0" d="M128.09 48.2c0.21,-0.5 0.76,-1.39 1.02,-1.79 0.1,-0.57 0.47,-0.93 0.7,-1.34 0.05,-0.58 0.12,-0.56 0.44,-0.98 0.67,-0.87 0.31,-1.24 1.22,-1.31 0.03,0 0.14,0 0.18,0 1.62,-0.04 0.49,0.86 1,0.93 0.04,0.16 0.04,0.05 0.44,0.05 0.76,-0.68 0.84,-2.25 1.25,-2.82l1.09 -3.22c-0.45,0.04 -2.04,0.46 -2.28,0.61 -0.7,0.41 -0.27,1.17 -1.17,1.97l-0.34 -0.64c-0.31,0.52 -0.33,0.34 -1.01,0.2l-2.43 -1.24c-0.36,-0.21 -0.3,-0.19 -0.72,-0.19 -0.33,0.41 -0.67,0.89 -1.07,1.3 -0.59,0.59 -0.64,0.59 -1.07,1.26 -0.33,0.52 -0.83,0.71 -1.24,1.21 -0.22,0.27 -0.23,0.37 -0.55,0.61 -1.22,0.91 -0.88,1.09 -1.81,1.81 -1.09,0.85 -1.49,1.49 -1.85,1.77 -0.35,0.28 -0.35,0.2 -0.66,0.5 -0.38,0.37 -0.93,0.82 -1.16,1.22 0.65,0.49 1.05,0.96 1.7,1.27 0.33,0.15 0.15,0.04 0.37,0.18 1.38,0.81 1.77,0.79 2.43,1.16 0.58,0.33 0.05,0.13 0.75,0.2l2.27 0.65c0.5,-0.43 0.93,-1.03 1.33,-1.64 0.22,-0.34 0.32,-0.6 0.56,-0.99 0.24,-0.39 0.36,-0.43 0.61,-0.74z"/>
   <path class="fil0" d="M107.9 74.25l-0.27 -0.78 -2.18 0.84c-1.38,0.37 -2.93,0.71 -4.45,0.52l-0.51 -0.35c-0.85,-0.84 -1.01,0.19 -1.25,-0.95 0.41,-0.44 0.14,-0.21 0.94,-0.49l0.32 -0.15c0.44,-0.23 1.34,-0.43 1.58,-0.96l-1.16 0.13c-0.9,0.12 -2.17,1.16 -2.6,1.35 -1.05,0.47 -1.87,0.78 -3,1.14 -0.57,0.48 -1.56,0.65 -2.26,0.96 -0.85,0.36 -1.5,0.67 -2.29,1.07 -0.58,0.29 -0.7,0.14 -1.2,0.37 -0.53,0.23 -0.7,0.26 -1.27,0.4 -0.85,0.2 -0.55,0.35 -2.58,0.82 -1.67,0.66 -0.71,0.59 -2.5,0.92l-2.76 0.87c-0.33,0.15 -0.53,0.2 -0.9,0.28 -0.17,0.03 -0.39,0.05 -0.55,0.12 -0.53,0.26 -0.19,0.08 -0.3,0.31 -0.33,0.78 0.47,0.1 0.12,0.84l0.48 0.03c0.36,0 0.97,-0.25 1.42,-0.38 0.46,-0.14 0.91,-0.43 1.21,-0.47 0.41,-0.52 0.68,-0.44 1.26,-0.61 0.75,-0.22 0.31,-0.29 1.14,-0.54 0.8,-0.25 1.75,-0.49 2.61,-0.74 0.92,-0.26 1.76,-0.88 2.35,-0.99 2.01,-0.36 1,-0.54 1.9,-0.66l0.72 0.07 -0.81 2.44c-0.18,0.39 0.14,0.11 -0.47,1.17l-0.88 1.57c-0.51,1.11 0.33,0.17 -0.17,1.12 1.05,-0.31 1.46,-0.54 2.44,-0.9l3.6 -1.55c0.44,-0.24 0.8,-0.33 1.24,-0.58 0.86,-0.47 1.51,-0.66 2.34,-1.16l4.51 -2.34c0.44,-0.26 0.5,-0.4 0.97,-0.71 0.85,-0.55 0.6,-0.2 2.15,-1.33 0.43,-0.31 0.79,-0.36 1.06,-0.7z"/>
   <path class="fil0" d="M75.15 62.41c0.5,-0.14 0.4,-0.38 1.6,-0.35 1.41,0.04 3.07,0.5 4.96,0.37 0.88,-0.05 0.67,-0.13 1.15,-0.25 0.33,-0.09 0.92,-0.08 1.27,-0.12 0.98,-0.11 1.59,-0.24 2.32,-0.34l0.18 -0.13c0.09,-0.24 0.1,-0.23 0.18,-0.45l-1.47 0.04c-0.51,0.05 -0.36,-0.11 -0.68,-0.17 -0.01,0 -0.04,0 -0.05,-0.01 -0.02,0 -0.08,0.01 -0.11,0l-1.07 -0.15c-0.57,-0.37 0.19,-0.12 -0.9,-0.34 -0.39,-0.08 -0.15,-0.27 -0.61,0.23 -0.17,-0.67 -0.7,-0.78 -1.14,-1.2l-2.73 -2.82c-0.2,-0.29 -0.33,-0.53 -0.4,-0.89 0.03,-0.01 0.08,0.01 0.09,-0.03l0.73 -0.18c0.03,-0.01 0.08,-0.03 0.11,-0.05 -1.79,0.03 -3.13,0.26 -4.93,0.44 -0.82,0.08 -1.47,0.14 -2.34,0.21 -0.87,0.06 -1.25,0.37 -2.49,0.28 -0.68,0.32 -1.57,0.39 -2.28,0.77 -0.63,0.33 -1.79,0.56 -2.2,0.89 0.12,0.43 0.19,0.32 0.45,0.49 0.17,0.12 0.03,0.02 0.19,0.15 0.07,0.06 0.34,0.24 0.38,0.26l0.36 0.13c0.13,-0.36 0.02,-0.06 0,-0.3 -0.01,-0.23 -0.11,-0.11 0.11,-0.63 0.17,-0.41 -0.03,-0.04 0.17,-0.38l0.11 0.17c0.01,0.03 0.08,0.14 0.1,0.18l0.48 1.09c0.51,0.03 -0.54,-0.21 0.34,-0.1 0.37,0.04 0.34,0.14 0.45,0.28 0.48,0.63 0.11,0.21 0.1,0.35 -0.01,0.03 -0.07,0.23 -0.07,0.27 -0.03,0.19 -0.03,0.27 -0.04,0.47l0.52 -0.29c0.28,0.62 0.09,0.48 0.29,0.43l0.23 -0.17c-0.02,1.36 0.29,0.69 0.9,0.65l-0.19 0.37c-0.04,0.28 -0.03,0.2 0.1,0.4 0.08,-0.86 -0.13,-0.33 0.31,-0.48l0 0.23c0.33,-0.06 0.12,-0.08 0.37,-0.03 0.63,0.13 0.17,0.34 0.71,0.3l2.06 0.14c0.69,0.22 -0.26,0.12 0.99,0.15 0.44,0.01 0.36,0.01 0.78,0.09 0.28,0.04 0.31,0.08 0.61,0.03z"/>
   <path class="fil0" d="M21.39 115.39c-0.32,-0.11 -0.34,-0.19 -0.32,-0.48l0.12 -0.99c0,-0.02 0.01,-0.05 0.01,-0.07 0.01,-0.27 -0.05,-0.24 -0.03,-0.37 0,-0.02 0,-0.06 0.01,-0.07l0.13 -0.33c0.24,-0.67 0.02,-0.61 0.5,-1.84 0,-0.01 0.02,-0.05 0.03,-0.06l0.06 -0.26c0.09,-0.6 0.02,-0.19 0.26,-0.73l0.47 -1.1c0.09,-0.28 0.02,-0.19 0.11,-0.37 0.06,-0.14 0.3,-0.39 0.42,-0.64l0.82 -2.35c0.03,-0.67 -0.15,-0.05 0.24,-0.66 0.2,-0.31 0.03,0.09 0.06,-0.2l-0.05 -0.64c-0.01,0 -0.04,-0.03 -0.05,-0.04 -0.01,0 -0.04,-0.02 -0.05,-0.02 -0.17,-0.07 0.13,-0.12 -0.24,-0.02 -0.66,0.12 -1.81,2.08 -2.2,2.46 -0.71,0.69 -1.59,1.82 -2.11,2.8 -0.31,0.58 -0.57,1.07 -0.84,1.63 -0.23,0.46 -0.2,0.28 -0.5,0.64l-2.07 4.05c-0.15,0.75 -0.57,1.46 -0.85,2.2 -0.29,0.79 -0.33,1.57 -0.68,2.29l-1.3 4.53c-0.46,2.22 -0.84,5.36 -1.03,7.7 -0.03,0.39 -0.12,1.89 0,2.29l0.1 0.21 0.55 -2.94c0.2,-1 0.45,-1.81 0.81,-2.82 1.01,-2.91 1.24,-3.54 2.57,-6.23 0.79,-1.6 3.37,-5.66 4.65,-6.98 0.43,-0.44 0.24,-0.01 0.4,-0.59z"/>
   <path class="fil0" d="M45.86 72.23c1.08,-0.07 4.05,-1.59 5.55,-1.7 0.5,-0.43 0.5,-0.2 1.11,-0.41 1.67,-0.6 7.82,-2.17 9.16,-2.45 2.66,-0.57 9.02,-1.82 11.21,-2.03l0.88 -0.24c0.11,-0.09 0.05,-0.14 0.45,-0.27 -0.5,-0.35 -5.39,0.09 -6.66,0.17 -1.86,0.13 -0.65,0.41 -3.86,0.31 -0.85,-0.03 -1.63,0 -2.47,0.01 -4.31,0.05 -8.58,-0.77 -11.51,2.85 -1.41,1.75 -3.78,1.13 -5.73,1.5 -0.72,0.14 -1.21,0.43 -1.69,0.24 -0.37,-0.15 -0.09,0.05 -0.25,-0.18 -0.32,0.17 -0.34,0.26 -0.65,0.47 -0.27,0.18 -0.47,0.27 -0.79,0.5 -0.44,0.31 -1.24,0.83 -1.35,1.12 -0.18,0.33 0.14,0.11 -0.24,0.36 2.4,-0.01 3.19,-0.34 5.31,-0.48 0.15,-0.01 0.56,-0.04 0.72,-0.06 0.99,-0.09 0.79,0.19 0.81,0.29z"/>
   <path class="fil0" d="M79.25 86.5l-1.4 0.13c0.31,-0.57 1.34,-0.96 1.9,-1.94 0.64,-1.13 0.84,-0.43 1.48,-1.49 0.22,-0.36 0.18,-0.54 0.56,-0.71 0.01,0 0.05,-0.01 0.07,-0.02 0.38,-0.14 0.28,0.02 0.39,-0.28l-0.04 -0.59c0.02,0 0.07,0.03 0.08,0.03 0.33,0.15 -0.16,0.12 0.09,0.04 -0.09,-0.44 -0.13,-0.53 0.03,-1.02l-0.47 0.04c-0.3,0.04 -0.75,0.33 -1.21,0.47 -0.45,0.13 -1.06,0.38 -1.42,0.38 -0.03,0.03 -0.07,0.11 -0.09,0.08l-0.99 0.65c-1.15,0.85 -0.88,0.06 -3.58,1.46 -0.45,0.23 -0.71,0.2 -1.2,0.46 -1.23,0.65 -2.31,0.65 -3.59,1.46 -0.91,0.57 -5.18,2.32 -6.79,3.28 -0.69,0.42 -1.67,0.6 -2.35,1.1 -0.34,0.51 -1.4,0.95 -1.95,1.18l-2.95 1.72c-0.38,0.26 -0.49,0.42 -0.94,0.62 -1.54,0.68 -0.65,0.39 -1.43,0.88l-0.38 0.22c-0.02,0.05 -0.08,0.04 -0.11,0.06l-0.01 0.05 7.59 -3.07c0.52,-0.2 1.09,-0.49 1.55,-0.65 0.58,-0.21 1,-0.2 1.69,-0.48 0.32,-0.14 0.46,-0.21 0.72,-0.31 0.04,-0.01 0.16,-0.05 0.2,-0.06 0.03,-0.02 0.06,-0.03 0.09,-0.04l0.58 -0.2c0.62,-0.16 1.04,-0.2 1.61,-0.47 0.7,-0.32 2.56,-0.75 3.52,-0.88 0.43,-0.05 1.22,-0.35 1.74,-0.47 0.61,-0.14 1.16,-0.15 1.72,-0.3 0.78,-0.21 0.84,-0.34 1.74,-0.44 1.3,-0.15 1.9,-0.53 2.61,-0.64 0.47,-0.07 0.68,0.02 0.94,-0.25z"/>
   <path class="fil0" d="M12.41 134.95l-0.1 -0.21c-0.12,-0.4 -0.03,-1.9 0,-2.29 0.19,-2.34 0.57,-5.48 1.03,-7.7l1.3 -4.53c0.35,-0.72 0.39,-1.5 0.68,-2.29 0.28,-0.74 0.7,-1.45 0.85,-2.2 -0.52,0.09 -0.16,0.06 -0.29,-0.08 0.21,-0.49 0.04,-0.36 -0.28,-1.01l-0.36 -0.81c-0.23,-0.45 -0.3,-0.32 -0.48,-0.82l-0.56 -1.58c-0.24,-0.81 0.1,-0.55 -0.37,-1.24 -0.41,-0.58 -0.16,0.06 -0.16,-0.87l-0.31 -0.18c-0.02,0.03 -0.05,0.1 -0.05,0.08l-0.89 3.39c-0.42,1.47 -0.51,2.05 -0.62,3.82 -0.05,0.71 -0.23,1.19 -0.35,1.82 -0.12,0.65 -0.21,1.23 -0.3,1.83 -0.21,1.36 -0.37,2.6 -0.5,4.1 -0.11,1.36 -0.13,2.85 -0.1,4.27 0.03,1.38 0.49,6.67 0.82,7.95 0.49,1.95 0.55,1.32 0.84,3.03 0.03,0.16 -0.03,0.28 0.24,0.57l-0.04 -5.05z"/>
   <path class="fil0" d="M123.88 53.79c-0.3,-0.5 -1.48,-0.95 -2.03,-1.2l-1.13 -0.51c-0.74,-0.07 -2.31,-1.32 -3.19,-1.89 -0.76,-0.5 -0.41,-0.46 -0.83,-0.81 -0.4,0.1 -0.59,0.18 -0.87,0.44 -0.48,0.45 -0.16,0.21 -0.79,0.5 -0.51,0.23 -0.31,0.32 -0.8,0.62 -0.55,0.33 -1.17,0.62 -1.66,1.06 -0.89,0.81 -1.92,1.06 -2.33,1.72l0.49 -0.12c-0.02,0.03 -0.06,0.06 -0.07,0.08l-0.2 0.46c0.53,-0.21 0,-0.05 0.36,0.02l0.62 0.06c0.19,0.03 0.06,-0.04 0.27,0.11 0.52,0.36 -0.08,0.24 0.52,0.26l0.8 0.25c0.01,0 0.18,0.17 0.24,0.23 0.02,0.01 0.05,0.04 0.07,0.05l4.85 3.97c0.35,0.22 0.46,0.24 0.28,0.73l1.56 -1.4c0.29,-0.3 0.34,-0.45 0.64,-0.77 0.27,-0.28 0.39,-0.53 0.63,-0.79 0.29,-0.32 0.51,-0.36 0.78,-0.65l1.79 -2.42z"/>
   <path class="fil0" d="M75.83 62.96c-0.33,-0.16 -0.47,-0.22 -0.68,-0.55 -0.3,0.05 -0.33,0.01 -0.61,-0.03 -0.42,-0.08 -0.34,-0.08 -0.78,-0.09 -1.25,-0.03 -0.3,0.07 -0.99,-0.15l-2.06 -0.14c-0.54,0.04 -0.08,-0.17 -0.71,-0.3 -0.25,-0.05 -0.04,-0.03 -0.37,0.03l0 -0.23c-0.44,0.15 -0.23,-0.38 -0.31,0.48 -0.13,-0.2 -0.14,-0.12 -0.1,-0.4l0.19 -0.37c-0.61,0.04 -0.92,0.71 -0.9,-0.65l-0.23 0.17c-0.2,0.05 -0.01,0.19 -0.29,-0.43l-0.52 0.29c0.01,-0.2 0.01,-0.28 0.04,-0.47 0,-0.04 0.06,-0.24 0.07,-0.27 0.01,-0.14 0.38,0.28 -0.1,-0.35 -0.11,-0.14 -0.08,-0.24 -0.45,-0.28 -0.88,-0.11 0.17,0.13 -0.34,0.1l-0.48 -1.09c-0.02,-0.04 -0.09,-0.15 -0.1,-0.18l-0.11 -0.17c-0.2,0.34 0,-0.03 -0.17,0.38 -0.22,0.52 -0.12,0.4 -0.11,0.63 0.02,0.24 0.13,-0.06 0,0.3l-0.36 -0.13c-0.04,-0.02 -0.31,-0.2 -0.38,-0.26 -0.16,-0.13 -0.02,-0.03 -0.19,-0.15 -0.26,-0.17 -0.33,-0.06 -0.45,-0.49 -0.53,0.29 -1.2,0.41 -1.69,0.64 -1.71,0.8 -3.2,1.3 -4.87,2.11l-4.65 2.32c-0.59,0.28 -0.94,0.59 -1.45,0.84 0.17,0.23 -0.13,0.07 0.3,0.22 0.67,0.23 1.18,-0.3 2.64,-0.24 4.04,0.15 8.14,-0.39 12.25,-0.41 0.84,-0.01 2.02,-0.06 3.07,-0.28 0.52,-0.11 0.69,-0.11 1.12,-0.21 0.3,-0.07 0.96,-0.34 1.42,-0.36 0.86,-0.06 2.64,0.42 3.35,0.17z"/>
   <path class="fil0" d="M89.59 83.52c0.5,-0.95 -0.34,-0.01 0.17,-1.12l0.88 -1.57c0.61,-1.06 0.29,-0.78 0.47,-1.17l0.81 -2.44 -0.72 -0.07c-0.9,0.12 0.11,0.3 -1.9,0.66 -0.59,0.11 -1.43,0.73 -2.35,0.99 -0.86,0.25 -1.81,0.49 -2.61,0.74 -0.83,0.25 -0.39,0.32 -1.14,0.54 -0.58,0.17 -0.85,0.09 -1.26,0.61l0.47 -0.04c-0.16,0.49 -0.12,0.58 -0.03,1.02 -0.25,0.08 0.24,0.11 -0.09,-0.04 -0.01,0 -0.06,-0.03 -0.08,-0.03l0.04 0.59c-0.11,0.3 -0.01,0.14 -0.39,0.28 -0.02,0.01 -0.06,0.02 -0.07,0.02 -0.38,0.17 -0.34,0.35 -0.56,0.71 -0.64,1.06 -0.84,0.36 -1.48,1.49 -0.56,0.98 -1.59,1.37 -1.9,1.94l1.4 -0.13c0.62,0 0.75,-0.15 1.23,-0.32l2.76 -0.62c0.51,-0.13 0.7,-0.3 1.2,-0.44 0.53,-0.14 0.89,-0.17 1.36,-0.32 0.48,-0.14 0.78,-0.31 1.25,-0.44 0.38,-0.12 0.89,-0.19 1.35,-0.34 0.45,-0.15 0.76,-0.36 1.19,-0.5z"/>
   <path class="fil0" d="M124.3 59.07c0.7,-0.48 2.34,-2.98 3.07,-4.04 0.94,-1.33 1.86,-2.98 2.64,-4.5 0.02,-0.76 -0.12,-0.38 -0.79,-1.3 -0.69,-0.94 -0.63,-0.91 -1.13,-1.03 -0.25,0.31 -0.37,0.35 -0.61,0.74 -0.24,0.39 -0.34,0.65 -0.56,0.99 -0.4,0.61 -0.83,1.21 -1.33,1.64 -0.22,0.74 -0.42,0.57 -0.82,1.12 -0.46,0.65 -0.21,0.7 -0.89,1.1l-1.79 2.42c-0.27,0.29 -0.49,0.33 -0.78,0.65 -0.24,0.26 -0.36,0.51 -0.63,0.79 -0.3,0.32 -0.35,0.47 -0.64,0.77l-1.56 1.4c-0.11,0.4 -0.64,0.69 -0.98,0.98 -0.43,0.37 -0.79,0.6 -1.03,1.09 1.05,0.23 1.44,0.3 2.43,-0.08l2.71 -1.44c0.24,-0.18 0.35,-0.39 0.72,-0.53 0.57,-0.24 0.45,-0.06 1.01,-0.44 0.4,-0.26 0.39,-0.3 0.96,-0.33z"/>
   <path class="fil0" d="M79.31 81.54l-0.48 -0.03c0.35,-0.74 -0.45,-0.06 -0.12,-0.84 -1.31,0.27 -2.45,0.41 -3.61,0.92 -0.66,0.29 -1.09,0.19 -1.82,0.39l-1.7 0.59c-0.47,0.16 -0.45,0.07 -0.92,0.15l-1.73 0.57c-0.38,0.1 -2.13,0.32 -2.8,0.57 -0.99,0.38 -0.63,0.38 -1.94,0.45 -0.68,0.53 -0.59,0.17 -1.42,0.46 -0.47,0.16 -1.16,0.22 -1.37,0.46 -0.19,0.7 0.19,2.71 -0.18,3.65 -0.01,0.03 -0.02,0.06 -0.03,0.08 -0.01,0.02 -0.03,0.06 -0.04,0.07 -0.25,0.5 -0.39,0.22 -0.43,1 0.68,-0.5 1.66,-0.68 2.35,-1.1 1.61,-0.96 5.88,-2.71 6.79,-3.28 1.28,-0.81 2.36,-0.81 3.59,-1.46 0.49,-0.26 0.75,-0.23 1.2,-0.46 2.7,-1.4 2.43,-0.61 3.58,-1.46l0.99 -0.65c0.02,0.03 0.06,-0.05 0.09,-0.08z"/>
   <path class="fil0" d="M107.63 73.47c0.29,-0.28 1.22,-0.65 1.39,-0.75l0.85 -0.71c0.39,-0.29 0.14,0.02 0.53,-0.58l0.53 -0.69c0.08,-0.17 0.01,-0.4 0.35,-0.85l0.15 -0.26c0,-0.02 0.01,-0.05 0.02,-0.07l0.28 -0.58c0.18,-0.21 -0.02,0.07 0.36,-0.17l0.02 -0.84 -0.62 -0.14c0.02,-0.03 0.36,-1.19 -0.32,-1.47 -0.25,-0.1 -0.03,0.16 -0.29,-0.12 -0.74,0.26 -0.48,0.4 -1.12,0.77 -0.35,0.2 -0.83,0.44 -1.18,0.62 -0.84,0.45 -0.22,0.43 -1.04,0.79 -1.7,0.77 -1.92,1.31 -3.29,2.13 -0.71,0.42 -0.77,0.18 -1.41,0.41 -0.67,0.24 -0.6,0.74 -1.03,0.83 -0.12,0 -0.38,-0.01 -0.47,0.01 -0.69,0.17 -0.22,0.03 -0.42,0.26l1.16 -0.13c-0.24,0.53 -1.14,0.73 -1.58,0.96l-0.32 0.15c-0.8,0.28 -0.53,0.05 -0.94,0.49 0.24,1.14 0.4,0.11 1.25,0.95l0.51 0.35c1.52,0.19 3.07,-0.15 4.45,-0.52l2.18 -0.84z"/>
   <path class="fil0" d="M79.98 63.36c-0.64,0 -3.76,-0.27 -4.15,-0.4 -0.71,0.25 -2.49,-0.23 -3.35,-0.17 -0.46,0.02 -1.12,0.29 -1.42,0.36 -0.43,0.1 -0.6,0.1 -1.12,0.21 -1.05,0.22 -2.23,0.27 -3.07,0.28 -4.11,0.02 -8.21,0.56 -12.25,0.41 -1.46,-0.06 -1.97,0.47 -2.64,0.24 -0.43,-0.15 -0.13,0.01 -0.3,-0.22 -1.19,0.37 -2.73,1.4 -3.6,2 -0.87,0.59 -2.88,1.57 -3.44,2.27 1.45,0.6 3.19,0.39 4.2,-0.48 3.85,-3.26 8.01,-2.81 12.91,-2.81 1.66,0.01 3.38,-0.16 4.64,-0.21 2.57,-0.1 7.25,-0.63 9.44,-0.64 3.97,-0.02 3.35,-0.45 4.61,-0.68l-0.46 -0.16z"/>
   <path class="fil0" d="M60.72 90.03c0.04,-0.78 0.18,-0.5 0.43,-1 0.01,-0.01 0.03,-0.05 0.04,-0.07 0.01,-0.02 0.02,-0.05 0.03,-0.08 0.37,-0.94 -0.01,-2.95 0.18,-3.65 -1,0.03 -3.29,0.61 -4.15,0.9l-1.97 0.42c-1.16,0.1 -0.29,0.27 -1.89,0.64 0.11,0.55 0.27,0.13 0.44,0.64 0.25,0.75 0.08,0.61 0.44,0.16 0.03,1.03 0.84,0.57 0.86,0.66 0,0.02 0.03,-0.01 0.05,0 -0.03,0.55 -0.11,0.86 -0.51,0.68l-0.02 2.3c-0.01,0.03 -0.06,0.21 -0.07,0.22 -0.07,0.19 0,0.03 -0.12,0.23l-0.11 0.15c-0.01,0.02 -0.04,0.05 -0.05,0.08 -0.13,0.22 -0.12,0.24 -0.18,0.47 -0.08,0.03 0.04,0.34 -0.22,-0.23 -0.07,0.88 -0.76,1.09 -0.91,1.27l0.37 0.13c-0.23,0.17 -0.23,0.21 -0.4,0.76 0.03,-0.02 0.09,-0.01 0.11,-0.06l0.38 -0.22c0.78,-0.49 -0.11,-0.2 1.43,-0.88 0.45,-0.2 0.56,-0.36 0.94,-0.62l2.95 -1.72c0.55,-0.23 1.61,-0.67 1.95,-1.18z"/>
   <path class="fil0" d="M119.92 64.17c-0.43,-0.35 -0.97,0.03 -1.33,0.1 -0.27,0.05 -0.45,-0.1 -1.3,0.09l-1.09 0.14c-0.02,0 -0.08,0.02 -0.11,0.02l-1.66 -0.51c-0.17,-0.13 -0.07,-0.04 -0.22,-0.19 -0.99,0.49 -0.88,0.59 -1.64,1.23 -0.53,0.44 -1.22,0.82 -1.69,1.19 0.26,0.28 0.04,0.02 0.29,0.12 0.68,0.28 0.34,1.44 0.32,1.47l0.62 0.14 -0.02 0.84c-0.38,0.24 -0.18,-0.04 -0.36,0.17l-0.28 0.58c-0.01,0.02 -0.02,0.05 -0.02,0.07l-0.15 0.26c-0.34,0.45 -0.27,0.68 -0.35,0.85l-0.53 0.69c-0.39,0.6 -0.14,0.29 -0.53,0.58l-0.85 0.71c-0.17,0.1 -1.1,0.47 -1.39,0.75l0.27 0.78 4.81 -3.38c0.29,-0.27 0.52,-0.39 0.79,-0.63 0.28,-0.25 0.41,-0.42 0.76,-0.66 0.67,-0.46 0.87,-0.73 1.49,-1.23 0.81,-0.64 4.1,-3.97 4.17,-4.18z"/>
   <path class="fil0" d="M105.33 56.06l-0.34 -0.1c0.27,-0.41 4.75,-2.97 6.43,-4.46 0.52,-0.46 0.54,0.08 2.14,-1.37 1.35,-1.22 2.57,-0.74 2.78,-2.11 -0.74,0.06 -1.28,0.18 -1.84,0.6 -0.78,0.58 0.15,0.24 -1.44,0.85 -1.19,0.46 -0.21,0.35 -2.13,0.95l-3.08 1.24c-0.03,0.02 -0.09,0.01 -0.11,0.06 -0.03,0.06 -0.08,0.04 -0.12,0.07 0.57,0.05 0.2,-0.12 0.56,0.16 -0.04,0.68 -0.28,0.69 -0.8,0.94 -0.88,0.42 -2.45,1.45 -3.17,1.58 -0.83,1.11 -0.57,0.45 -1.16,0.93 -1.21,0.97 -2.71,1.61 -4.22,2.15l-0.66 0.59c-0.31,0.22 -0.42,0.3 -0.71,0.45 -0.5,0.27 -0.96,0.47 -1.49,0.72 -1.47,0.7 -2.99,1.41 -4.6,1.73 -0.18,0.04 -0.36,0.1 -0.49,0.17 -1.3,0.68 -0.88,0.3 -1.81,0.56 -0.43,0.13 0.1,0.15 -0.83,0.19 -0.01,0 -0.04,-0.01 -0.05,-0.01l-0.07 0.04c-0.01,0 -0.03,0.03 -0.04,0.03 -0.02,0.02 -0.09,0.09 -0.11,0.11 -0.45,0.4 -0.41,0.25 -0.42,0.54 0.52,0.42 2.41,-0.66 3.43,-0.88 1.92,-0.42 1.61,-0.42 3.49,-1.14 0.68,-0.27 1.76,-0.41 2.38,-0.74 1.31,-0.7 3.09,-1.09 4.48,-1.7l3.91 -2.08c0.02,0.02 0.06,-0.04 0.09,-0.07z"/>
   <path class="fil0" d="M137.08 31.5c0,-0.01 0.36,-1.41 0.36,-1.42 0.06,-0.32 0.02,-0.49 0.09,-0.81 0.11,-0.46 0.17,-0.27 0.23,-0.85l0.02 -0.95c-0.65,0.18 -0.7,0.21 -1.23,0.81 -0.02,-0.14 0.19,-1.21 0.31,-1.65 0.31,-1.13 0.42,-3.66 0.98,-5.99 0.17,-0.73 1.63,-7.6 0.94,-8.31l-0.8 2.76c0.04,1.34 -2.41,8.39 -3.05,9.91 -0.21,0.49 -0.37,0.57 -0.61,1.06 -0.19,0.37 -0.29,0.64 -0.48,1.05 -0.33,0.69 -0.66,1.5 -1.03,2.23 -0.66,1.32 -1.86,2.59 -2.25,4.22 0.97,-0.41 2.51,-3.8 3.33,-5.09l0.75 0.34c0.36,0.16 0.78,0.22 1.01,0.68 0.26,0.53 -0.26,0.88 -0.26,2.2 1.05,-0.04 0.78,-0.77 1.72,-0.92l-0.03 0.73z"/>
   <path class="fil0" d="M73.77 65.4c1.83,-0.18 3.78,-0.45 5.56,-0.77 0.79,-0.15 1.83,-0.3 2.63,-0.52 0.47,-0.13 0.62,-0.29 1.12,-0.36 0.68,-0.09 0.84,-0.12 1.39,-0.28 -0.2,-0.21 -0.18,-0.19 -0.33,-0.42 -0.68,0.02 -1.22,0.2 -1.98,0.27 -0.77,0.07 -1.18,-0.04 -2.02,0.05l-0.16 -0.01 0.46 0.16c-1.26,0.23 -0.64,0.66 -4.61,0.68 -2.19,0.01 -6.87,0.54 -9.44,0.64 -1.26,0.05 -2.98,0.22 -4.64,0.21 -4.9,0 -9.06,-0.45 -12.91,2.81 -1.01,0.87 -2.75,1.08 -4.2,0.48 -0.69,0.71 -1.82,0.86 -2.59,1.69 0.16,0.23 -0.12,0.03 0.25,0.18 0.48,0.19 0.97,-0.1 1.69,-0.24 1.95,-0.37 4.32,0.25 5.73,-1.5 2.93,-3.62 7.2,-2.8 11.51,-2.85 0.84,-0.01 1.62,-0.04 2.47,-0.01 3.21,0.1 2,-0.18 3.86,-0.31 1.27,-0.08 6.16,-0.52 6.66,-0.17 -0.4,0.13 -0.34,0.18 -0.45,0.27z"/>
   <path class="fil0" d="M119.65 40.97c-2.13,0.9 -1.74,1.28 -5.16,2.58l-5.7 2.1c-1.25,0.43 -2.81,0.65 -3.9,1.22 0.22,0.85 1.38,0.76 2.03,0.68 0.9,-0.11 1.83,-0.07 2.66,-0.19 2.82,-0.4 5.58,-1.89 7.56,-3.72l2.33 -1.94c0.03,-0.02 0.3,-0.35 0.31,-0.36 0.22,-0.47 0.26,-0.23 -0.13,-0.37z"/>
   <path class="fil0" d="M45.86 72.23c-0.02,-0.1 0.18,-0.38 -0.81,-0.29 -0.16,0.02 -0.57,0.05 -0.72,0.06 -2.12,0.14 -2.91,0.47 -5.31,0.48 0.38,-0.25 0.06,-0.03 0.24,-0.36l-6.46 5.41c-0.72,0.7 -1.38,1.13 -1.86,2.17 2.11,-1.06 1.86,-1.33 3.57,-2.14 0.45,-0.21 0.58,-0.31 0.91,-0.5 0.38,-0.22 0.59,-0.24 0.98,-0.44 0.64,-0.34 1.08,-0.64 1.73,-0.99l3.85 -1.72c0.69,-0.19 1.39,-0.45 2,-0.83 0.65,-0.41 1.28,-0.46 1.88,-0.85z"/>
   <path class="fil0" d="M119.92 64.17c0.37,-0.31 0.12,-0.14 0.26,-0.32l2.11 -2.01c0.37,-0.37 1.79,-2.26 2.01,-2.77 -0.57,0.03 -0.56,0.07 -0.96,0.33 -0.56,0.38 -0.44,0.2 -1.01,0.44 -0.37,0.14 -0.48,0.35 -0.72,0.53l-2.71 1.44c-0.99,0.38 -1.38,0.31 -2.43,0.08 -0.24,0.18 -0.31,0.29 -0.54,0.45 -0.2,0.15 -0.43,0.25 -0.64,0.39 -0.4,0.27 -0.79,0.69 -1.08,1.09 0.15,0.15 0.05,0.06 0.22,0.19l1.66 0.51c0.03,0 0.09,-0.02 0.11,-0.02l1.09 -0.14c0.85,-0.19 1.03,-0.04 1.3,-0.09 0.36,-0.07 0.9,-0.45 1.33,-0.1z"/>
   <path class="fil0" d="M125.59 51.57l-2.27 -0.65c-0.7,-0.07 -0.17,0.13 -0.75,-0.2 -0.66,-0.37 -1.05,-0.35 -2.43,-1.16 -0.22,-0.14 -0.04,-0.03 -0.37,-0.18 -0.65,-0.31 -1.05,-0.78 -1.7,-1.27 -0.26,0.14 -0.41,0.31 -0.7,0.53 -0.09,0.07 -0.29,0.21 -0.37,0.28 -0.34,0.37 -0.15,0.14 -0.3,0.46 0.42,0.35 0.07,0.31 0.83,0.81 0.88,0.57 2.45,1.82 3.19,1.89l1.13 0.51c0.55,0.25 1.73,0.7 2.03,1.2 0.68,-0.4 0.43,-0.45 0.89,-1.1 0.4,-0.55 0.6,-0.38 0.82,-1.12z"/>
   <path class="fil0" d="M78.58 55.57c1.11,-0.01 1.54,-0.29 2.81,-0.27 0.57,0.01 2.34,-0.06 2.8,-0.24 0.16,-0.42 -0.12,-0.41 -0.62,-0.52l-7.1 -0.56c-0.69,0.21 -1.35,0.25 -2.05,0.43l-5.37 1.89c-0.23,0.14 -0.08,0 -0.23,0.2 1.24,0.09 1.62,-0.22 2.49,-0.28 0.87,-0.07 1.52,-0.13 2.34,-0.21 1.8,-0.18 3.14,-0.41 4.93,-0.44z"/>
   <path class="fil0" d="M138.78 12.33c0.69,0.71 -0.77,7.58 -0.94,8.31 -0.56,2.33 -0.67,4.86 -0.98,5.99 -0.12,0.44 -0.33,1.51 -0.31,1.65 0.53,-0.6 0.58,-0.63 1.23,-0.81l-0.02 0.95 0.69 -4.31c0.61,-2.79 0.37,-1.52 0.51,-4.46 0.1,-2.2 0.78,-7.83 0.37,-9.65 -0.18,0.4 -0.32,1.68 -0.55,2.33z"/>
   <path class="fil0" d="M104.21 54.47c0.17,-0.43 0.2,-0.32 0.19,-0.84 -0.32,-0.26 -0.46,-0.3 -0.9,-0.34 -1.57,-0.14 -2.22,0.53 -3.69,0.68l-3.11 0.29c-0.63,0.04 -0.66,-0.06 -0.84,0.32 0.77,0.12 0.97,0.27 1.47,0.29l3.51 0.25c0.07,0.85 -1.25,1.36 -2.26,2.26l-0.15 0.14 0.4 0.03c1.51,-0.54 3.01,-1.18 4.22,-2.15 0.59,-0.48 0.33,0.18 1.16,-0.93z"/>
   <path class="fil0" d="M87.55 62.67c0.01,-0.29 -0.03,-0.14 0.42,-0.54 0.02,-0.02 0.09,-0.09 0.11,-0.11 0.01,0 0.03,-0.03 0.04,-0.03l0.07 -0.04c0.01,0 0.04,0.01 0.05,0.01 0.93,-0.04 0.4,-0.06 0.83,-0.19 0.93,-0.26 0.51,0.12 1.81,-0.56 0.13,-0.07 0.31,-0.13 0.49,-0.17 1.61,-0.32 3.13,-1.03 4.6,-1.73 0.53,-0.25 0.99,-0.45 1.49,-0.72 0.29,-0.15 0.4,-0.23 0.71,-0.45l0.66 -0.59 -0.4 -0.03c-0.49,0.16 -1.02,0.35 -1.49,0.54 -1.28,0.54 -2.44,1.25 -3.91,1.74l-2.93 0.97c-0.79,0.36 -2.51,0.74 -3.47,0.82l-0.18 0.13c-0.02,0.04 -0.04,0.08 -0.05,0.1l-0.65 1.01 -0.04 0.21c0.5,-0.31 1.24,-0.54 1.84,-0.37z"/>
   <path class="fil0" d="M133.09 43.76c-0.4,0 -0.4,0.11 -0.44,-0.05 -0.51,-0.07 0.62,-0.97 -1,-0.93 -0.04,0 -0.15,0 -0.18,0 -0.91,0.07 -0.55,0.44 -1.22,1.31 -0.32,0.42 -0.39,0.4 -0.44,0.98 0.54,0 0.6,-0.05 1,0.64l0.19 0.32c0.23,0.27 0.3,0.11 0.56,0.39 0.05,0.05 0.06,0.2 0.24,0.43 0.4,-0.27 0.35,-0.9 0.65,-1.46 0.3,-0.55 0.59,-0.88 0.64,-1.63z"/>
   <path class="fil0" d="M131.2 48.26c-0.49,-0.16 -0.19,0.13 -0.54,-0.48 -0.15,-0.26 -0.16,-0.41 -0.28,-0.63 -0.26,-0.48 -0.83,-0.57 -1.27,-0.74 -0.26,0.4 -0.81,1.29 -1.02,1.79 0.5,0.12 0.44,0.09 1.13,1.03 0.67,0.92 0.81,0.54 0.79,1.3 0.35,-0.38 0.17,-0.28 0.36,-0.72 0.2,-0.45 0.23,-0.24 0.5,-0.97 0.16,-0.42 0.1,-0.3 0.33,-0.58z"/>
   <path class="fil0" d="M81.71 62.43c-1.89,0.13 -3.55,-0.33 -4.96,-0.37 -1.2,-0.03 -1.1,0.21 -1.6,0.35 0.21,0.33 0.35,0.39 0.68,0.55 0.39,0.13 3.51,0.4 4.15,0.4l0.16 0.01 1.57 -0.94z"/>
   <path class="fil0" d="M107.62 51.79c-0.93,0.3 -3.47,0.9 -4.12,1.5 0.44,0.04 0.58,0.08 0.9,0.34 0.01,0.52 -0.02,0.41 -0.19,0.84 0.72,-0.13 2.29,-1.16 3.17,-1.58 0.52,-0.25 0.76,-0.26 0.8,-0.94 -0.36,-0.28 0.01,-0.11 -0.56,-0.16z"/>
   <path class="fil0" d="M84.14 63.05c1.08,-0.36 0.41,-0.27 1.61,-0.22l0.65 -1.01c0.01,-0.02 0.03,-0.06 0.05,-0.1 -0.73,0.1 -1.34,0.23 -2.32,0.34 -0.35,0.04 -0.94,0.03 -1.27,0.12 -0.48,0.12 -0.27,0.2 -1.15,0.25l-1.57 0.94c0.84,-0.09 1.25,0.02 2.02,-0.05 0.76,-0.07 1.3,-0.25 1.98,-0.27z"/>
   <path class="fil0" d="M131.8 46.85c-0.18,-0.23 -0.19,-0.38 -0.24,-0.43 -0.26,-0.28 -0.33,-0.12 -0.56,-0.39l-0.19 -0.32c-0.4,-0.69 -0.46,-0.64 -1,-0.64 -0.23,0.41 -0.6,0.77 -0.7,1.34 0.44,0.17 1.01,0.26 1.27,0.74 0.12,0.22 0.13,0.37 0.28,0.63 0.35,0.61 0.05,0.32 0.54,0.48 0.36,-0.38 0.41,-0.82 0.6,-1.41z"/>
   <path class="fil0" d="M85.71 63.04l0.04 -0.21c-1.2,-0.05 -0.53,-0.14 -1.61,0.22 0.15,0.23 0.13,0.21 0.33,0.42 0.33,-0.06 0.5,0 0.79,-0.05 0.55,-0.08 0.37,-0.1 0.45,-0.38z"/>
  </g>
 </g>
</svg>
