<?xml version="1.0" encoding="UTF-8"?>
<!DOCTYPE svg PUBLIC "-//W3C//DTD SVG 1.1//EN" "http://www.w3.org/Graphics/SVG/1.1/DTD/svg11.dtd">
<!-- Creator: CorelDRAW 2018 (64 Bit) -->
<svg xmlns="http://www.w3.org/2000/svg" xml:space="preserve" width="150px" height="150px" version="1.1" style="shape-rendering:geometricPrecision; text-rendering:geometricPrecision; image-rendering:optimizeQuality; fill-rule:evenodd; clip-rule:evenodd"
viewBox="0 0 150 150"
 xmlns:xlink="http://www.w3.org/1999/xlink">
 <defs>
  <style type="text/css">
   <![CDATA[
    .fil0 {fill:#4C3B57}
   ]]>
  </style>
 </defs>
 <g id="Capa_x0020_1">
  <metadata id="CorelCorpID_0Corel-Layer"/>
  <g id="_1329243147520">
   <path class="fil0" d="M79.78 120.16l11.16 -14.06c1.67,-2.14 15.4,-3.5 21.16,-4.63 0.88,6.35 6.54,29.82 -4.86,32.88 -9.9,2.66 -23.71,-10.4 -27.46,-14.19l0 0zm-41.92 -18.69c3.81,0.72 7.31,1.48 11.2,2.03 10.85,1.54 6.94,-0.86 15.49,9.71l5.67 6.95c-8.05,8.13 -33.45,27.83 -34.57,0.65 -0.3,-7.49 1.24,-12.51 2.21,-19.34zm36.83 13.61c-1.68,-1.53 -7.39,-8.24 -8.22,-9.84l16.93 -0.09c-0.62,1.5 -2.73,3.85 -3.96,5.23 -1.56,1.77 -2.08,3.6 -4.75,4.7zm22.37 -17.83c1.42,-2.03 2.86,-4.78 4.34,-7.25 1.45,-2.4 2.51,-5.35 4.33,-7.12l4.25 12.55 -12.92 1.82 0 0zm-52.73 -14.35c1.56,1.54 3.18,5.27 4.5,7.49 1.33,2.25 2.76,4.94 4.06,7.13l-13.1 -2.24 4.54 -12.38 0 0zm72.04 10.66c-1,-3.55 -6.88,-17.52 -6.81,-18.8 0.06,-1.11 5.81,-14.67 6.81,-18.37 9.56,1.95 26.75,9.88 26.47,18.9 -0.26,8.41 -17,16.59 -26.47,18.27zm-41.68 5.31c-13.74,0 -12.87,0.84 -17.84,-7.58 -1.45,-2.46 -8.66,-14.31 -8.53,-16.54 0.05,-0.92 10.69,-22.37 14.47,-23.19 2.8,-0.61 22.67,-0.6 24.91,0.12 2.79,0.89 14.1,21.53 13.98,23.57 -0.11,1.88 -7.52,14.38 -8.77,16.43 -4.96,8.13 -3.89,7.19 -18.22,7.19zm-41.06 -5.31c-9.54,-1.7 -26.74,-10.02 -26.47,-18.85 0.26,-8.41 17,-16.59 26.47,-18.28 0.99,3.56 6.88,17.53 6.81,18.81 -0.06,1.06 -5.8,14.72 -6.81,18.33l0 -0.01zm72.05 -26.46c-1.8,-1.78 -6.84,-11.69 -8.58,-14.64l13.1 2.29 -4.52 12.35zm-52.75 -14.35c-1.39,2.01 -2.87,4.81 -4.33,7.25 -1.51,2.51 -2.39,5.16 -4.33,7.12l-4.24 -12.56 12.9 -1.81 0 0zm13.67 -7.9c0.72,-1.73 6.4,-8.39 8.09,-9.93 2.67,1.1 3.19,2.93 4.75,4.7 1.23,1.38 3.34,3.73 3.77,5.14l-16.61 0.09zm13.18 -15.01c3.44,-3.48 6.98,-6.67 11.78,-9.65 3.4,-2.11 10.6,-6.34 16.16,-4.39 8.93,3.11 7.67,24.01 3.97,32.7 -2.8,-0.83 -7.48,-1.52 -10.73,-2 -10.71,-1.57 -7.28,0.51 -12.63,-6.3l-5.77 -6.86c-1.24,-1.23 -1.91,-2.01 -2.78,-3.5l0 0zm-41.92 18.69c-0.97,-6.83 -2.51,-11.85 -2.21,-19.34 1.12,-27.18 26.51,-7.48 34.57,0.65 -0.86,1.52 -1.53,2.27 -2.77,3.5 -1.71,1.7 -1.57,1.8 -2.91,3.45 -8.61,10.65 -4.57,8.13 -15.49,9.71 -3.88,0.56 -7.38,1.32 -11.19,2.03zm3.56 92.47l7.64 0c3.65,-1.77 7.35,-1.71 14.54,-6.67 2.78,-1.94 10.02,-7.76 11.42,-9.46 4.64,5.17 11.79,9.96 18.3,13.33 2.73,1.41 5.32,1.69 7.62,2.8l7.64 0c4.6,-2.8 5.01,-1.68 8.18,-5.96 2.09,-2.82 3.13,-6.1 3.71,-10.11 1.39,-9.5 -0.71,-16.46 -2.14,-25.18 12.58,-2.53 30.7,-11.83 31.05,-24.43 0.37,-13.09 -18.5,-22.54 -31.05,-25.07 1.56,-9.46 5.59,-25.66 -1.57,-35.29 -3.17,-4.28 -3.58,-3.16 -8.18,-5.96l-7.64 0c-3.66,1.77 -7.35,1.71 -14.54,6.67 -3.28,2.28 -9.38,7.23 -11.38,9.46 -1.31,-1.59 -8.84,-7.72 -11.49,-9.42 -9.51,-6.08 -9.68,-4.39 -14.47,-6.71l-7.64 0c-5.43,3.31 -10.13,4.09 -11.88,16.07 -1.41,9.56 0.68,16.4 2.13,25.18 -12.5,2.52 -30.8,11.88 -31.05,24.44 -0.27,13 18.5,22.53 31.05,25.06 -1.56,9.44 -5.6,25.64 1.57,35.29 3.17,4.28 3.58,3.16 8.18,5.96l0 0z"/>
   <path class="fil0" d="M71.16 62.5c-17,5.35 -8.73,30.42 8.19,25 15.68,-5.04 8.99,-30.42 -8.19,-25z"/>
  </g>
 </g>
</svg>
