<?xml version="1.0" encoding="UTF-8"?>
<!DOCTYPE svg PUBLIC "-//W3C//DTD SVG 1.1//EN" "http://www.w3.org/Graphics/SVG/1.1/DTD/svg11.dtd">
<!-- Creator: CorelDRAW 2018 (64 Bit) -->
<svg xmlns="http://www.w3.org/2000/svg" xml:space="preserve" width="150px" height="150px" version="1.1" style="shape-rendering:geometricPrecision; text-rendering:geometricPrecision; image-rendering:optimizeQuality; fill-rule:evenodd; clip-rule:evenodd"
viewBox="0 0 150 150"
 xmlns:xlink="http://www.w3.org/1999/xlink">
 <defs>
  <style type="text/css">
   <![CDATA[
    .fil0 {fill:#4C3B57}
   ]]>
  </style>
 </defs>
 <g id="Capa_x0020_1">
  <metadata id="CorelCorpID_0Corel-Layer"/>
  <g id="_2591425607776">
   <path class="fil0" d="M85.78 117.05c0,-4.37 0.94,-5.85 1.08,-7.55 0.9,1.3 2.24,6.26 2.54,7.7 0.64,3.1 0.69,6.14 0.69,9.82 -0.74,0.17 -1.41,0.37 -2.15,0.54 -0.39,-1.67 -1.04,-2.92 -1.46,-4.74 -0.4,-1.72 -0.7,-3.81 -0.7,-5.77zm58.22 -69.9l0 0.82c-0.19,4.58 -3.66,8.97 -8.09,8.97 -4.38,0 -3.98,-0.04 -7.54,-2.43 -0.69,0.47 -3.25,1.98 -4.05,2.16 0.22,2.57 11.34,20.68 0.35,46.17 -0.73,1.7 -1.53,2.84 -2.32,4.41 -3.68,7.27 -11.23,14.51 -17.91,19.02 -2.28,1.53 -3.85,2.23 -6.26,3.45 -12.87,6.49 -31.82,6.95 -45.01,0.53 -1.54,-0.74 -2.63,-1.12 -4.16,-2.04 -0.74,-0.44 -1.2,-0.59 -1.93,-1.03 -4.32,-2.6 -6.05,-4.56 -8.74,-6.36 -0.81,1.21 -3.31,3.45 -4.51,4.65 -2.21,2.21 -12.61,13.14 -13.82,13.14 -2.36,0 -3.23,-0.87 -3.23,-3.23 0,-1.24 7.41,-8.09 8.69,-9.37l9.1 -8.96 -4.35 -5.62c-0.5,-0.66 -0.87,-1.28 -1.31,-1.93 -2.47,1.31 -19.1,10.78 -20.21,10.78 -1.16,0 -2.5,-1.12 -2.7,-2.49l0 -0.7c0.12,-0.78 0.64,-1.59 1.79,-2.29 0.95,-0.58 1.59,-0.92 2.62,-1.43 4.42,-2.23 11.11,-6.24 15.8,-8.72 -1.9,-3.6 -3.65,-8.95 -4.51,-13.01 -1.08,-5.06 -1.15,-7.18 -1.15,-12.33 0,-8.38 2.88,-19.28 7.23,-26.2l5.48 -7.72 8.47 -8.24c0.75,-0.51 1.22,-0.78 1.93,-1.31 4.61,-3.46 12.44,-6.99 18.07,-8.34 14.92,-3.58 30.23,-1.1 43.03,7.23 2.66,1.73 5.14,4.05 6.9,5.23 1.35,-2.02 14.82,-14.5 14.82,-15.09 0,-1.72 -0.81,-0.82 -0.81,-5.12 0,-1.96 1.6,-4.69 2.63,-5.73 3.51,-3.51 9.56,-3.51 13.07,0 2.12,2.12 2.63,4.49 2.63,7.34 0,4.86 -6.27,10.82 -13.41,7.35l-15.16 15.02 6.2 8.09c0.79,-0.18 3.36,-1.7 4.04,-2.16 0,-3.03 -0.03,-5.17 2.11,-7.86 2.34,-2.95 7.45,-4.1 11.02,-2.3 3.54,1.79 5.07,4.71 5.2,7.65zm-53.91 55.61c1.05,-1.56 1.69,-2.36 3.04,-3.7 0.84,-0.85 2.54,-2.73 3.7,-3.04 0.65,0.47 1.02,1.46 1.51,2.27 2.87,4.83 6.46,15.58 6.58,20.91 -2.13,1.43 -6.56,4.79 -9.17,5.39 0,-4.04 -0.82,-8.71 -1.78,-11.95 -0.46,-1.54 -1.13,-3.73 -1.72,-5.03l-1.62 -3.49c-0.26,-0.52 -0.32,-0.88 -0.54,-1.36zm11.59 -9.7c3.12,-0.73 5.45,-1.89 9.44,-1.89 1.01,0 2.91,4.77 3.35,5.82 0.62,1.49 3.22,7.07 2.59,8.46 -0.79,1.75 -3.66,5.18 -4.86,6.75 -0.69,0.89 -1.49,1.79 -2.43,2.42 0,-2.49 -1.43,-6.46 -2.16,-8.89 -0.9,-3.05 -4.11,-9.96 -5.93,-12.67zm16.71 -0.81c1.6,0.13 2.38,0.75 3.78,1.08 -0.23,0.99 -0.9,3.51 -1.62,4.04 -0.32,-1.36 -1.53,-3.95 -2.16,-5.12zm-35.84 36.66c-1.93,0 -2.8,0.28 -4.85,0.27 -1.71,-0.01 -3.42,0 -5.13,0 -0.42,-1.81 -1.02,-3.44 -1.3,-5.44 -4.03,-28.34 18.74,-51.11 47.08,-47.08 1.99,0.28 3.63,0.89 5.44,1.3 0,1.71 -0.01,3.42 0,5.13 0.01,2 -0.27,2.83 -0.27,4.85 -2.77,-0.65 -4.87,-1.95 -9.17,-2.16 -5.42,-0.25 -9.71,0.23 -14.52,2.19 -1.08,0.44 -2.84,1.23 -3.81,1.85 -3.61,2.32 -6.61,4.58 -9.2,8.05 -3.22,4.32 -6.3,10.81 -6.44,16.48 -0.09,3.98 -0.25,5.7 0.76,10.03 0.43,1.83 1.02,2.88 1.41,4.53zm-47.17 -19.95c-2.3,-1.69 -8.09,-14.4 -8.09,-18.33 0.85,-0.2 2.35,-1.17 3.24,-1.62 2.83,-1.4 8.11,-3.7 11.32,-3.77 -3.07,6.4 -5.89,16.71 -6.47,23.72zm-9.17 -23.99c0,-1.55 -0.67,-8.93 0.27,-10.51 0.51,-0.7 1.59,-0.9 2.51,-1.27 7.43,-2.98 14.18,-3.85 22.56,-3.85 -1.91,2.85 -3.74,5.02 -5.71,8.31 -0.81,1.36 -0.59,1.37 -2.17,1.6 -1.01,0.15 -1.49,0.18 -2.37,0.33 -5.84,0.98 -10.62,3.03 -15.09,5.39zm29.92 -20.75c-6.5,-1.52 -22.8,0.6 -28.3,3.5 0.04,-1.59 1.4,-4.7 1.96,-6.12l1.98 -4.22c0.68,-1.43 0.61,-1.22 4.3,-1.9 8.07,-1.5 17.22,-1.77 25.26,-0.23 1.28,0.25 2.33,0.61 3.7,0.61 -0.81,1.21 -3,2.58 -4.51,4.12 -1.08,1.09 -3.33,2.65 -4.39,4.24zm19.95 4.04c0,1.29 1.19,2.7 2.42,2.7 1.98,0 4.33,-2.17 7.01,-3.51 7.89,-3.92 16.01,-6.47 25.88,-6.47 2.19,0 3.34,0.18 5.38,0.28 4.52,0.21 3.96,-0.01 6.48,10.78 -4.03,-0.94 -7.12,-1.3 -11.4,-1.47 -8.81,-0.35 -20.07,3.34 -26.92,8.43 -5.6,4.16 -8.97,7.72 -12.68,13.47 -6.99,10.83 -8.5,23.76 -5.61,36.17 -1.87,-0.44 -3.76,-0.82 -5.44,-1.29 -1.93,-0.54 -3.27,-1.26 -5.07,-1.68 0,-3.12 -0.54,-5.6 -0.54,-8.89 0,-7.13 1.49,-13.34 3.34,-18.77 1.4,-4.12 3.2,-7.45 5.4,-11.04 0.77,-1.25 1.78,-2.08 1.78,-3.88 0,-1.73 -1.32,-2.43 -2.97,-2.43 -1.73,0 -2.67,2.08 -3.45,3.29 -0.47,0.73 -0.87,1.4 -1.31,2.19 -0.5,0.93 -0.79,1.31 -1.26,2.24 -1.66,3.27 -2.81,5.98 -4.05,9.7 -3.1,9.23 -2.87,15.06 -2.87,24.36 -1.61,-0.43 -8.02,-5.42 -9.25,-6.92 -0.84,-1.03 -0.32,-1.75 -0.18,-4.67 0.49,-10.37 5.24,-23.78 10.89,-32.24l6.96 -9.2c1.18,-1.19 2.59,-3.08 3.94,-4.15 3.76,-3 5.51,-5.2 10.64,-8.23 5.01,-2.96 8.62,-5.1 14.5,-7.06 2.7,-0.91 5.56,-1.8 8.39,-2.4 2.72,-0.57 6.45,-1.27 9.37,-1.41 4.61,-0.21 3.87,-1.27 7.24,3 1,1.27 4,4.94 4.35,6.43 -5.25,0 -7.38,-0.19 -12.65,0.3 -3.51,0.32 -8.2,1.39 -11.11,2.36 -4.84,1.63 -11.91,4.63 -16.04,7.68 -0.73,0.55 -1.17,1.18 -1.17,2.33zm58.22 -23.99l1.08 0c4.09,0 4.35,7.28 -0.54,7.28 -4.9,0 -4.64,-7.28 -0.54,-7.28zm-63.07 7.55l-7.66 -1.77c-6.48,-1.32 -7.66,-0.98 -13.11,-1.45 -2.54,-0.22 -12.02,1.03 -13.46,1.06 1.83,-2.74 5.29,-5.82 7.97,-7.93l3.45 -2.49c1.46,-1.01 5.62,-0.19 9.06,-0.09 5.3,0.16 14.67,2.61 19.71,4.28 1.1,0.37 2.03,0.69 2.97,1.07 0.91,0.37 2.02,0.91 2.93,1.12 -0.33,0.28 -0.1,0.14 -0.63,0.45l-11.23 5.75zm-10.78 -18.33c1.05,-0.02 5.4,-1.59 11.58,-1.89 1.22,-0.06 1.51,-0.3 2.97,-0.28l9.46 1.07c4.2,0.84 6.91,1.85 10.45,3.3 1.84,0.75 6.89,3.54 8.66,5.08 -2.61,0.06 -8.8,1.37 -11.38,2.12 -1.98,0.57 -2.1,-0.27 -4.71,-1.39 -6.41,-2.74 -20.07,-7.47 -27.03,-7.47l0 -0.54zm70.61 -12.67c-0.2,-1.32 1.15,-3.81 3.56,-3.98 4.78,-0.34 5.38,7.07 0.44,7.43 -2.08,0.14 -3.71,-1.56 -4,-3.45z"/>
   <path class="fil0" d="M73.11 75.27c0,-3.18 -4.06,-4.09 -5.27,-1.21 -1.69,4.02 5.27,5.32 5.27,1.21z"/>
  </g>
 </g>
</svg>
