<?xml version="1.0" encoding="UTF-8"?>
<!DOCTYPE svg PUBLIC "-//W3C//DTD SVG 1.1//EN" "http://www.w3.org/Graphics/SVG/1.1/DTD/svg11.dtd">
<!-- Creator: CorelDRAW 2018 (64 Bit) -->
<svg xmlns="http://www.w3.org/2000/svg" xml:space="preserve" width="150px" height="150px" version="1.1" style="shape-rendering:geometricPrecision; text-rendering:geometricPrecision; image-rendering:optimizeQuality; fill-rule:evenodd; clip-rule:evenodd"
viewBox="0 0 150 150"
 xmlns:xlink="http://www.w3.org/1999/xlink">
 <defs>
  <style type="text/css">
   <![CDATA[
    .fil0 {fill:#4C3B57}
   ]]>
  </style>
 </defs>
 <g id="Capa_x0020_1">
  <metadata id="CorelCorpID_0Corel-Layer"/>
  <path class="fil0" d="M70.92 107.67l8.16 0 0 8.16 -8.16 0 0 -8.16zm-44.92 -73.5l98 0 0 65.33 -98 0 0 -65.33zm-8.17 -0.51l0 66.35c0,4.1 4.02,7.66 7.4,7.66l37.52 0 0 8.16 -8.68 0c-1.85,0 -3.57,1.77 -3.57,4.6 0,1.59 1.98,3.57 3.57,3.57l41.86 0c1.85,0 3.57,-1.77 3.57,-4.59 0,-1.6 -1.98,-3.58 -3.57,-3.58l-8.68 0 0 -8.16 37.52 0c1.9,0 4.04,-1.34 5.05,-2.35 1.01,-1.01 2.35,-3.15 2.35,-5.05l0 -66.87c0,-3.37 -3.56,-7.4 -7.66,-7.4l-99.02 0c-3.94,0 -7.66,3.72 -7.66,7.66z"/>
 </g>
</svg>
