<?xml version="1.0" encoding="UTF-8"?>
<!DOCTYPE svg PUBLIC "-//W3C//DTD SVG 1.1//EN" "http://www.w3.org/Graphics/SVG/1.1/DTD/svg11.dtd">
<!-- Creator: CorelDRAW 2018 (64 Bit) -->
<svg xmlns="http://www.w3.org/2000/svg" xml:space="preserve" width="150px" height="150px" version="1.1" style="shape-rendering:geometricPrecision; text-rendering:geometricPrecision; image-rendering:optimizeQuality; fill-rule:evenodd; clip-rule:evenodd"
viewBox="0 0 150 150"
 xmlns:xlink="http://www.w3.org/1999/xlink">
 <defs>
  <style type="text/css">
   <![CDATA[
    .fil0 {fill:#4C3B57}
   ]]>
  </style>
 </defs>
 <g id="Capa_x0020_1">
  <metadata id="CorelCorpID_0Corel-Layer"/>
  <g id="_2591417219936">
   <path class="fil0" d="M76.63 64.41c0,-0.82 0.61,-0.93 1.12,-1.33 0.59,-0.46 0.79,-0.77 1.44,-1.28 1.23,-0.95 1.53,-1.57 2.87,-2.28l8.49 8.35 -3.51 4.23c-1.75,2.13 -1.09,2.04 -6.13,-3.01 -0.78,-0.78 -4.28,-3.75 -4.28,-4.68zm-27.76 80.13l-2.86 0c-3.65,-0.19 -7.39,-1.12 -11.13,-2.8 -3.76,-1.7 -1.37,-4.28 -0.05,-4.38 1.9,-0.15 5.85,3.77 15.69,2.8 2.2,-0.22 4.02,-0.98 5.86,-1.75 3.25,-1.36 6.66,-4.19 8.69,-6.79 7.17,-9.2 4.7,-13.55 7.85,-22.84 3.72,-10.91 13.87,-9.09 19.79,-18.51 2.44,-3.88 2.33,-9.19 0.8,-13.41 -0.49,-1.36 -1.37,-2.46 -1.67,-3.76 -0.69,0.51 -1.84,2.15 -2.52,2.91 -4.32,4.86 -9.39,-1.92 -11.4,-3.93 -1.71,-1.71 -5.64,-4.72 -5.64,-7.67 0,-3.48 3.05,-4.31 4.35,-6.25 -6.4,-3.39 -13.95,-4.58 -19.62,1.29 -2.89,2.99 -4.56,0.67 -4.56,-0.75 0,-2 9.29,-11.1 22.16,-6.13 8.17,3.15 2.65,5.14 14.87,-5.2l6.75 -5.74c1.52,-1.23 10.42,-8.57 10.99,-9.92 2.55,-5.97 1.33,-6.78 5.27,-11.31 -0.84,-1.25 -3.26,-2.59 -3.26,-4.35 0,-1.86 2.86,-3.56 5.97,1.09 1.17,-0.78 3,-2.87 3.81,-4.07 -1.05,-1.56 -3.81,-2.84 -3.81,-5.16 0,-0.43 0.92,-1.63 1.63,-1.63 3.05,0 2.68,1.87 5.16,3.53 0.62,-0.41 1.03,-0.85 1.56,-1.43l1.34 -1.38c0.87,-0.69 2.46,-1.54 3.89,-1.54 5.03,0 5.36,1.41 9.85,5.91 2.51,2.51 5.91,5.1 5.91,8.22 0,6.14 -2.04,4.97 -4.35,8.42 0.6,0.88 3.53,3.21 3.53,4.07 0,3.38 -2.55,2.89 -3.6,1.98 -1.19,-1.01 -1.93,-2.23 -3.19,-3.07 -2.46,1.65 -2.68,2.6 -4.07,3.54 0.8,1.2 2.99,2.35 2.99,4.07 0,1.32 -0.86,2.17 -2.18,2.17 -1.27,0 -3.04,-2.56 -4.07,-3.26 -0.89,0.6 -1.39,1.37 -2.38,1.97l-6.15 2.28c-3.67,1.28 -3.83,1.49 -6.18,4.41l-17.41 20.34c-4.24,4.55 -2.61,2.19 -0.05,8.88 3.73,9.73 0.52,17.8 -7.68,23.87 -2.36,1.75 -7.02,4 -8.66,5.19 -0.65,0.47 -1.32,0.91 -1.82,1.44 -3.67,3.99 -3.69,11.44 -4.81,16.11 -0.47,1.99 -0.95,3.31 -1.71,5.08 -0.74,1.74 -1.47,3.09 -2.47,4.59 -5.35,7.99 -13,12.42 -21.41,12.87zm41.88 -92.63l7.41 7.27 -4.69 5.5 -8.08 -7.94c0.75,-1.17 1.54,-1.48 2.58,-2.45 0.6,-0.56 0.63,-0.6 1.31,-1.14 0.67,-0.52 0.84,-0.81 1.47,-1.24zm3.2 -2.92c2.15,-1.46 3.73,-3.32 5.77,-4.68l6.04 5.9c-1.43,2.11 -3.29,3.69 -4.68,5.78l-7.13 -7zm14.73 -1.97l-5.77 -5.64 4.35 -3.66c0.52,-0.49 0.93,-0.86 1.42,-1.29l4.83 4.68c-1.31,2 -3.89,4.51 -4.83,5.91zm8.42 -8.42l-5.77 -5.64c0.36,-1.32 0.87,-2.67 1.32,-3.97 0.3,-0.84 0.41,-1 0.69,-1.76 1.41,-3.94 1.31,-2.91 4.24,-6.08 0.58,-0.62 0.64,-0.88 1.22,-1.5l7.47 -8.01c0.59,-0.59 1.57,-2.1 3.33,-2.1 1.95,0 6.95,5.73 8.49,7.26 4.78,4.77 1.52,5.47 -3.94,10.87l-6.25 5.7c-1.74,1.77 -2.71,2.51 -4.72,3.16 -2.11,0.68 -3.96,1.58 -6.08,2.07z"/>
   <path class="fil0" d="M5.46 101.08c0,9.17 1.82,12.71 5.89,19.64 1.29,2.2 6.95,9.03 8.46,10.28 1.67,1.39 6.68,6.75 8.59,6.33 1.2,-0.26 3.03,-2.24 0.59,-4.1l-3.77 -3.01c-0.67,-0.65 -1.08,-1.19 -1.79,-1.75 -1.77,-1.39 -3.47,-3.61 -5,-5.32 -7.67,-8.61 -12.18,-21.33 -5.45,-32.21 3.52,-5.71 9.52,-9.64 16.11,-11.33 1.75,-0.45 3.84,-0.59 5.82,-0.96 10.2,-1.91 11.84,-3.65 16.35,-11.1 1.29,-2.14 0.9,-3.86 -1.07,-4.14 -2.71,-0.38 -3.31,4.95 -6.11,7.29 -6.81,5.7 -19.44,2.18 -29.46,11.83 -4.84,4.67 -9.16,11.06 -9.16,18.55z"/>
   <path class="fil0" d="M23.66 102.16c0,2.34 0.63,2.95 2.38,4.69 0.29,0.29 4.32,5.11 5.55,1.08 0.23,-0.77 0,-1.48 -0.64,-2.18 -1.09,-1.19 -2.19,-2.14 -3.21,-3.32l3.73 -3.86 19.97 19.82c-0.52,0.74 -3.06,3.6 -3.87,3.6 -0.83,0 -2.46,-2.04 -3.06,-2.65l-5.7 -5.7c-0.86,-0.86 -1.99,-2.51 -3.47,-2.51 -1.16,0 -2.17,0.83 -2.17,1.9 0,1.51 2.01,2.96 2.92,3.87l6.79 6.79c3.89,3.89 5.97,3.4 9.64,-0.27 1.8,-1.79 2.92,-2.17 2.92,-5.23 0,-2.54 -2.57,-4.34 -4.95,-6.72l-14.54 -14.54c-2.05,-2.05 -2.02,-2.37 -4.68,-2.37 -2.44,0 -3.41,1.64 -4.69,2.92 -1.28,1.28 -2.92,2.25 -2.92,4.68z"/>
   <path class="fil0" d="M64.68 76.09c10.15,0 12.49,14.28 3.7,17.82 -3.45,1.39 -7.66,0.86 -10.4,-1.89 -2.78,-2.78 -3.29,-6.93 -1.89,-10.4 1.21,-2.97 4.54,-5.53 8.59,-5.53zm-13.58 8.69c0,2.98 0.05,3.82 1.32,6.56 1.31,2.85 3.68,4.97 6.46,6.3 9.12,4.39 19.11,-3.05 19.11,-10.96 0,-4.83 -0.5,-7.58 -4.27,-11.21 -8.37,-8.03 -22.62,-1.6 -22.62,9.31z"/>
  </g>
 </g>
</svg>
